<?xml version="1.0" encoding="UTF-8"?>
<svg width="43px" height="43px" viewBox="0 0 43 43" version="1.1" xmlns="http://www.w3.org/2000/svg" xmlns:xlink="http://www.w3.org/1999/xlink">
    <title>Group 3</title>
    <defs>
        <filter id="filter-1">
            <feColorMatrix in="SourceGraphic" type="matrix" values="0 0 0 0 1.000000 0 0 0 0 1.000000 0 0 0 0 1.000000 0 0 0 1.000000 0"></feColorMatrix>
        </filter>
    </defs>
    <g id="Checkout" stroke="none" stroke-width="1" fill="none" fill-rule="evenodd">
        <g id="01.-Full-Checkout" transform="translate(-214.000000, -649.000000)">
            <g id="Group-33" transform="translate(214.000000, 649.000000)">
                <g id="Group-3">
                    <g id="ic_album" fill="#00C972">
                        <path d="M21.12,0 C9.46176,0 0,9.46176 0,21.12 C0,32.77824 9.46176,42.24 21.12,42.24 C32.77824,42.24 42.24,32.77824 42.24,21.12 C42.24,9.46176 32.77824,0 21.12,0 L21.12,0 Z" id="Path"></path>
                    </g>
                    <g filter="url(#filter-1)" id="network">
                        <g transform="translate(9.240000, 7.920000)">
                            <path d="M11.835252,9.1209888 L11.835252,4.717944 C12.8654064,4.4532576 13.6289736,3.5166384 13.6289736,2.4049872 C13.6289736,1.0883664 12.5578728,0.0172656 11.241252,0.0172656 C9.9247104,0.0172656 8.8536096,1.0883664 8.8536096,2.4049872 C8.8536096,3.5166384 9.6171768,4.4531784 10.647252,4.7178648 L10.647252,9.1209096 C9.397872,9.3089304 8.3370672,10.0804176 7.7520168,11.148192 L5.1392088,9.1170288 C5.2031232,8.9371656 5.2382088,8.74368 5.2382088,8.5421952 C5.2382088,7.5925872 4.4656128,6.8199912 3.5160048,6.8199912 C2.5663968,6.8199912 1.7938008,7.5925872 1.7938008,8.5421952 C1.7938008,9.4918032 2.5663968,10.2643992 3.5160048,10.2643992 C3.8305872,10.2643992 4.1254488,10.17918 4.3795224,10.0313136 L7.3328904,12.3272424 C7.2893304,12.5625456 7.265412,12.8045808 7.265412,13.0523184 C7.265412,13.9346064 7.5546504,14.7503664 8.04276,15.4106568 L4.7034504,18.7499664 C4.4714736,18.9819432 4.4714736,19.358064 4.7034504,19.5899616 C4.8194784,19.7059104 4.9715424,19.763964 5.1235272,19.763964 C5.275512,19.763964 5.427576,19.7059896 5.543604,19.5899616 L8.8829136,16.250652 C9.3920904,16.6270896 9.9937728,16.8852024 10.647252,16.9835688 L10.647252,21.3964344 C9.9894168,21.6389448 9.519048,22.2720696 9.519048,23.0129856 C9.519048,23.9625936 10.291644,24.7351896 11.241252,24.7351896 C12.19086,24.7351896 12.963456,23.9625936 12.963456,23.0129856 C12.963456,22.2719904 12.4930872,21.6388656 11.835252,21.3964344 L11.835252,16.983648 C13.7468232,16.6960728 15.217092,15.0427728 15.217092,13.0523976 C15.217092,11.061864 13.746744,9.408564 11.835252,9.1209888 Z M3.5160048,9.0764784 C3.2213808,9.0764784 2.9818008,8.8368192 2.9818008,8.5422744 C2.9818008,8.2477296 3.2213808,8.0080704 3.5160048,8.0080704 C3.8106288,8.0080704 4.0502088,8.2477296 4.0502088,8.5422744 C4.0502088,8.8368192 3.8105496,9.0764784 3.5160048,9.0764784 Z M10.0415304,2.4049872 C10.0415304,1.7434296 10.5796944,1.2052656 11.2411728,1.2052656 C11.9026512,1.2052656 12.4408944,1.7434296 12.4408944,2.4049872 C12.4408944,3.0665448 11.9026512,3.6047088 11.2411728,3.6047088 C10.5796944,3.6047088 10.0415304,3.0665448 10.0415304,2.4049872 Z M11.241252,23.5471896 C10.946628,23.5471896 10.707048,23.3075304 10.707048,23.0129856 C10.707048,22.7551896 10.8905544,22.5394488 11.1338568,22.489632 C11.1687048,22.4960472 11.2045032,22.4998488 11.241252,22.4998488 C11.2780008,22.4998488 11.3137992,22.4960472 11.3486472,22.489632 C11.5919496,22.5394488 11.775456,22.7551896 11.775456,23.0129856 C11.775456,23.3075304 11.5357968,23.5471896 11.241252,23.5471896 Z M11.241252,15.8400792 C9.7040592,15.8400792 8.4534912,14.589432 8.4534912,13.0522392 C8.4534912,12.7809792 8.4931704,12.5189064 8.5657176,12.2707728 C8.5695984,12.2584968 8.5732416,12.2463 8.5762512,12.2338656 C8.9267112,11.0948112 9.988704,10.2643992 11.241252,10.2643992 C12.7784448,10.2643992 14.029092,11.5150464 14.029092,13.0522392 C14.029092,14.5895112 12.7784448,15.8400792 11.241252,15.8400792 Z" id="Shape" fill="#000000" fill-rule="nonzero"></path>
                            <path d="M22.9984128,7.2826776 C21.681792,7.2826776 20.6106912,8.3537784 20.6106912,9.6703992 C20.6106912,9.7317792 20.61378,9.7923672 20.6183736,9.8525592 L16.322724,11.3172048 C16.0121808,11.423016 15.8462568,11.7606456 15.9521472,12.0711096 C16.0363368,12.3181344 16.2671256,12.473604 16.5143088,12.473604 C16.5779064,12.473604 16.6425336,12.463308 16.706052,12.4416864 L21.0015432,10.97712 C21.4285896,11.6275104 22.1639616,12.0582 22.998492,12.0582 C24.3150336,12.0582 25.3861344,10.9870992 25.3861344,9.6704784 C25.3861344,8.3538576 24.3149544,7.2826776 22.9984128,7.2826776 Z M22.9984128,10.8702 C22.3368552,10.8702 21.7986912,10.332036 21.7986912,9.6704784 C21.7986912,9.0089208 22.3369344,8.4707568 22.9984128,8.4707568 C23.6598912,8.4707568 24.1980552,9.0089208 24.1980552,9.6704784 C24.1980552,10.3319568 23.6598912,10.8702 22.9984128,10.8702 Z" id="Shape" fill="#000000" fill-rule="nonzero"></path>
                            <path d="M2.3877216,19.518048 C1.0711008,19.518048 0,20.589228 0,21.9057696 C0,23.2223904 1.0711008,24.2934912 2.3877216,24.2934912 C3.7042632,24.2934912 4.775364,23.2223904 4.775364,21.9057696 C4.7754432,20.589228 3.7042632,19.518048 2.3877216,19.518048 Z M2.3877216,23.1055704 C1.726164,23.1055704 1.188,22.5674064 1.188,21.9058488 C1.188,21.2442912 1.7262432,20.7061272 2.3877216,20.7061272 C3.0492,20.7061272 3.587364,21.2442912 3.587364,21.9058488 C3.5874432,22.5673272 3.0492792,23.1055704 2.3877216,23.1055704 Z" id="Shape" fill="#000000" fill-rule="nonzero"></path>
                        </g>
                    </g>
                </g>
            </g>
        </g>
    </g>
</svg>