<?xml version="1.0" encoding="UTF-8"?>
<svg width="21px" height="24px" viewBox="0 0 21 24" version="1.1" xmlns="http://www.w3.org/2000/svg" xmlns:xlink="http://www.w3.org/1999/xlink">
    <title>android</title>
    <g id="Free-Test-Funnel" stroke="none" stroke-width="1" fill="none" fill-rule="evenodd">
        <g id="03.-Trial-Info" transform="translate(-540.000000, -1486.000000)" fill="#C0C0C0" fill-rule="nonzero">
            <path d="M543.15,1495.2483 L543.15,1501.45418 C543.15,1502.27949 542.488281,1502.93866 541.646094,1502.93866 C540.809375,1502.93866 540,1502.27413 540,1501.45418 L540,1495.2483 C540,1494.43907 540.809375,1493.77454 541.646094,1493.77454 C542.471875,1493.77454 543.15,1494.43907 543.15,1495.2483 Z M543.740625,1503.66215 C543.740625,1504.54104 544.4625,1505.24845 545.359375,1505.24845 L546.447656,1505.24845 L546.464062,1508.52288 C546.464062,1510.5004 549.482812,1510.48433 549.482812,1508.52288 L549.482812,1505.24845 L551.517188,1505.24845 L551.517188,1508.52288 C551.517188,1510.48968 554.552344,1510.49504 554.552344,1508.52288 L554.552344,1505.24845 L555.657031,1505.24845 C556.542969,1505.24845 557.264844,1504.54104 557.264844,1503.66215 L557.264844,1494.04786 L543.740625,1494.04786 L543.740625,1503.66215 Z M557.303125,1493.52802 L543.680469,1493.52802 C543.680469,1491.23431 545.080469,1489.24071 547.158594,1488.20104 L546.114063,1486.30926 C545.960937,1486.04667 546.349219,1485.88053 546.480469,1486.10562 L547.541406,1488.01347 C549.45,1487.1828 551.642969,1487.22568 553.464062,1488.01347 L554.519531,1486.11098 C554.65625,1485.88053 555.039063,1486.05203 554.885937,1486.31462 L553.841406,1488.20104 C555.903125,1489.24071 557.303125,1491.23431 557.303125,1493.52802 L557.303125,1493.52802 Z M547.967969,1490.5537 C547.967969,1490.24823 547.716406,1489.99099 547.39375,1489.99099 C547.082031,1489.99099 546.835937,1490.24823 546.835937,1490.5537 C546.835937,1490.85917 547.0875,1491.11641 547.39375,1491.11641 C547.716406,1491.11641 547.967969,1490.85917 547.967969,1490.5537 Z M554.169531,1490.5537 C554.169531,1490.24823 553.917969,1489.99099 553.611719,1489.99099 C553.289062,1489.99099 553.0375,1490.24823 553.0375,1490.5537 C553.0375,1490.85917 553.289062,1491.11641 553.611719,1491.11641 C553.917969,1491.11641 554.169531,1490.85917 554.169531,1490.5537 Z M559.353906,1493.77454 C558.528125,1493.77454 557.85,1494.423 557.85,1495.2483 L557.85,1501.45418 C557.85,1502.27949 558.528125,1502.93866 559.353906,1502.93866 C560.196094,1502.93866 561,1502.27413 561,1501.45418 L561,1495.2483 C561,1494.423 560.190625,1493.77454 559.353906,1493.77454 Z" id="android"></path>
        </g>
    </g>
</svg>