<?xml version="1.0" encoding="UTF-8"?>
<svg width="93px" height="30px" viewBox="0 0 93 30" version="1.1" xmlns="http://www.w3.org/2000/svg" xmlns:xlink="http://www.w3.org/1999/xlink">
    <title>Group 25</title>
    <g id="Checkout-1.1" stroke="none" stroke-width="1" fill="none" fill-rule="evenodd">
        <g id="01.-Full-Checkout-Copy-2" transform="translate(-260.000000, -1093.000000)" fill-rule="nonzero">
            <g id="Group-33" transform="translate(10.000000, 884.000000)">
                <g id="Group-25" transform="translate(250.000000, 209.000000)">
                    <g id="Payment-Method/Mastercard" transform="translate(49.000000, 0.000000)">
                        <rect id="BASE" stroke="#D3DCE6" fill="#FFFFFF" x="0.5" y="0.5" width="42.3333321" height="28.7142849" rx="4"></rect>
                        <g id="Mastercard" transform="translate(8.047619, 6.190476)">
                            <path d="M19.4086716,0 C24.0746369,0 27.8571491,3.82642226 27.8571491,8.54655333 C27.8571491,13.2666844 24.0746369,17.0931067 19.4086716,17.0931067 C17.3173067,17.0931067 15.4034262,16.3243843 13.928079,15.0510191 C12.4534227,16.3245049 10.5396784,17.0931067 8.44847754,17.0931067 C3.78251224,17.0931067 0,13.2666844 0,8.54655333 C0,3.82642226 3.78251224,0 8.44847754,0 C10.5396784,0 12.4534227,0.768601739 13.9287229,2.04178795 C15.4034262,0.768722332 17.3173067,0 19.4086716,0 Z" id="Left" fill="#ED0006"></path>
                            <path d="M19.4086645,0 C24.0746298,0 27.857142,3.82642226 27.857142,8.54655333 C27.857142,13.2666844 24.0746298,17.0931067 19.4086645,17.0931067 C17.3171556,17.0931067 15.4031555,16.3242785 13.9277672,15.050756 C15.7454361,13.4831662 16.896948,11.1508958 16.896948,8.54655333 C16.896948,5.94221083 15.7454361,3.60994049 13.9293678,2.04235066 C15.4031555,0.768828207 17.3171556,0 19.4086645,0 Z" id="Right" fill="#F9A000"></path>
                            <path d="M13.9290535,2.04210648 C15.7452978,3.60969845 16.8969386,5.94208403 16.8969386,8.54657222 C16.8969386,11.1510604 15.7452978,13.483446 13.9290535,15.051038 C12.1120382,13.4837426 10.9602507,11.1512258 10.9602507,8.54657163 C10.9602507,5.97195469 12.0856263,3.66323457 13.8659064,2.09634376 Z" id="Middle" fill="#FF5E00"></path>
                        </g>
                    </g>
                    <g id="Payment-Method/Visa">
                        <rect id="BASE" stroke="#D3DCE6" fill="#FFFFFF" x="0.5" y="0.5" width="42.3333321" height="28.7142849" rx="4"></rect>
                        <path d="M25.4054069,10.5238092 C26.1336935,10.5238092 26.9362171,10.669005 27.6657837,10.958145 L27.228044,12.9796214 C26.4984774,12.6191352 25.6242771,12.4739394 24.8217538,12.5465373 C24.3110571,12.5465373 23.8733173,12.8356772 23.8003606,13.3413592 C23.8003606,14.4240695 27.228044,14.5680134 27.228044,17.0238256 C27.228044,18.9739557 25.5513203,20.2732083 22.8532038,20.2018621 C21.9777239,20.2018621 21.0305673,20.0566663 20.1550873,19.6961801 L20.5928273,17.6734521 C21.3940707,18.0351899 22.2695505,18.251732 23.1450304,18.251732 C23.873317,18.251732 24.6028839,17.9625919 24.6028839,17.3129658 C24.6758406,16.8798817 24.3110572,16.5907414 23.3639006,16.1576573 C22.4884206,15.7233216 21.2481573,15.0023494 21.2481573,13.6292476 C21.2481573,11.8243134 22.999117,10.5238092 25.4054069,10.5238092 Z M9.80035409,10.7403462 C10.3840074,10.7403462 10.8217472,11.174682 10.8947039,11.6791123 L11.9160973,17.0964182 L14.5399774,10.7403462 L17.0921803,10.7403462 L13.1550806,20.1292581 L10.5299206,20.1292581 L8.56137077,12.61913 C8.46793505,12.2736641 8.26954429,11.9682522 7.97771766,11.8243081 C7.24943104,11.4625702 6.44690771,11.174682 5.57142782,11.0294862 L5.57142782,10.7403462 L9.80035409,10.7403462 Z M20.5928288,10.7403462 L18.5513221,20.1292581 L16.0720756,20.1292581 L18.1135822,10.7403462 L20.5928288,10.7403462 Z M33.9362099,10.7403462 L35.9047603,20.1292581 L33.6443829,20.1292581 L33.3525566,18.757408 L30.216699,18.757408 L29.7072822,20.1292581 L27.1550784,20.1292581 L30.8003526,11.4625703 C30.9462659,11.0294862 31.3840059,10.7403462 31.821746,10.7403462 L33.9362099,10.7403462 Z M32.1865223,13.2687667 L30.873303,16.8072898 L32.9148088,16.8072898 L32.1865223,13.2687667 Z" id="visa-logo" fill="#172B85"></path>
                    </g>
                </g>
            </g>
        </g>
    </g>
</svg>