<?xml version="1.0" encoding="UTF-8"?>
<svg width="93px" height="30px" viewBox="0 0 93 30" version="1.1" xmlns="http://www.w3.org/2000/svg" xmlns:xlink="http://www.w3.org/1999/xlink">
    <title>Group 23</title>
    <g id="Checkout-1.1" stroke="none" stroke-width="1" fill="none" fill-rule="evenodd">
        <g id="01.-Full-Checkout-Copy-2" transform="translate(-260.000000, -1152.000000)" fill-rule="nonzero">
            <g id="Group-33" transform="translate(10.000000, 884.000000)">
                <g id="Group-23" transform="translate(250.000000, 268.000000)">
                    <g id="Payment-Method/Bitcoin">
                        <rect id="BASE" stroke="#D3DCE6" fill="#FFFFFF" x="0.5" y="0.5" width="42.3333321" height="28.7142849" rx="4"></rect>
                        <path d="M21.7443929,4.95238082 C27.2585342,4.95238082 31.728629,9.42269504 31.728629,14.937108 C31.728629,20.451521 27.2585342,24.9218353 21.7443929,24.9218353 C16.2302517,24.9218353 11.7601569,20.451521 11.7601569,14.937108 C11.7601569,9.42269504 16.2302517,4.95238082 21.7443929,4.95238082 Z M21.5157911,8.66160342 L21.0645421,10.4620265 L18.845901,9.91453311 L18.5532159,11.0850579 C18.7708182,11.1346673 18.9439976,11.1749875 19.072754,11.2060184 L19.2325713,11.2455977 C19.3169048,11.2673393 19.3568152,11.2797916 19.3523027,11.2829546 C19.7979112,11.3940764 19.87876,11.6874877 19.8649718,11.9203441 L18.6303043,16.8527795 C18.5757784,16.9869997 18.4372699,17.1892665 18.1257827,17.1124801 C18.1333036,17.1228847 17.8667324,17.056711 17.3260692,16.913959 L16.7795565,18.1687615 L18.9950639,18.7256188 L18.5400545,20.5466423 L19.6387206,20.8200778 L20.0899696,19.0184061 C20.3901755,19.0989382 20.6816072,19.1744757 20.9667715,19.2450193 L20.5174028,21.037952 L21.6173225,21.3113862 L22.0729588,19.4941071 C23.9494027,19.8474495 25.3601823,19.7051142 25.9537002,18.0145645 C26.266291,16.8398233 25.9298841,15.8682904 24.9427768,15.356381 C25.6622683,15.1915711 26.2037673,14.7208641 26.348543,13.7476117 C26.5478447,12.41852 25.5319073,11.7043435 24.1430631,11.2273937 L24.5936856,9.42634624 L23.4937659,9.15291166 L23.0550514,10.9065138 C22.7661267,10.8347216 22.4690549,10.766675 22.1732361,10.6998771 L22.615084,8.935038 L21.5157911,8.66160342 Z M21.0525677,15.2871418 C21.798382,15.4725529 24.1900014,15.8396291 23.8346429,17.2592411 C23.4943259,18.6201707 21.1942098,17.8841452 20.4483954,17.6993584 Z M21.8767288,11.9946719 C22.4978228,12.1494931 24.4977333,12.4372859 24.174965,13.7282951 C23.8647313,14.9656164 21.9500567,14.3369673 21.3289627,14.1833946 Z" id="Bitcoin" fill="#F7931A"></path>
                    </g>
                    <g id="Group-37" transform="translate(49.000000, 0.000000)">
                        <rect id="BASE" stroke="#D3DCE6" fill="#FFFFFF" x="0.5" y="0.5" width="42.3333321" height="28.7142849" rx="4"></rect>
                        <g id="usdt-svgrepo-com" transform="translate(12.000000, 5.000000)">
                            <circle id="Oval" fill="#26A17B" cx="10" cy="10" r="10"></circle>
                            <path d="M11.20125,10.864375 L11.20125,10.863125 C11.1325,10.868125 10.778125,10.889375 9.9875,10.889375 C9.35625,10.889375 8.911875,10.870625 8.755625,10.863125 L8.755625,10.865 C6.325625,10.758125 4.511875,10.335 4.511875,9.82875 C4.511875,9.323125 6.325625,8.9 8.755625,8.79125 L8.755625,10.44375 C8.914375,10.455 9.369375,10.481875 9.998125,10.481875 C10.7525,10.481875 11.130625,10.450625 11.20125,10.444375 L11.20125,8.7925 C13.62625,8.900625 15.435625,9.32375 15.435625,9.82875 C15.435625,10.335 13.62625,10.756875 11.20125,10.864375 M11.20125,8.620625 L11.20125,7.141875 L14.585,7.141875 L14.585,4.886875 L5.371875,4.886875 L5.371875,7.141875 L8.755625,7.141875 L8.755625,8.62 C6.005625,8.74625 3.9375,9.29125 3.9375,9.94375 C3.9375,10.59625 6.005625,11.140625 8.755625,11.2675 L8.755625,16.00625 L11.20125,16.00625 L11.20125,11.26625 C13.946875,11.14 16.01,10.595625 16.01,9.94375 C16.01,9.291875 13.946875,8.7475 11.20125,8.620625" id="Shape" fill="#FFFFFF"></path>
                        </g>
                    </g>
                </g>
            </g>
        </g>
    </g>
</svg>