<?xml version="1.0" encoding="UTF-8"?>
<svg width="151px" height="32px" viewBox="0 0 151 32" version="1.1" xmlns="http://www.w3.org/2000/svg" xmlns:xlink="http://www.w3.org/1999/xlink">
    <title>Group 8</title>
    <g id="Checkout-1.1" stroke="none" stroke-width="1" fill="none" fill-rule="evenodd">
        <g id="01.-Full-Checkout-1.1-Copy-4" transform="translate(-645.000000, -360.000000)">
            <g id="Group-3" transform="translate(464.000000, 348.000000)">
                <g id="Group-8" transform="translate(181.000000, 13.000000)">
                    <g id="Payment-Method/Mastercard" transform="translate(53.000000, 0.000000)" fill-rule="nonzero">
                        <rect id="BASE" stroke="#D3DCE6" fill="#FFFFFF" x="0.5" y="0.5" width="42.3333321" height="28.7142849" rx="4"></rect>
                        <g id="Mastercard" transform="translate(8.047619, 6.190476)">
                            <path d="M19.4086716,0 C24.0746369,0 27.8571491,3.82642226 27.8571491,8.54655333 C27.8571491,13.2666844 24.0746369,17.0931067 19.4086716,17.0931067 C17.3173067,17.0931067 15.4034262,16.3243843 13.928079,15.0510191 C12.4534227,16.3245049 10.5396784,17.0931067 8.44847754,17.0931067 C3.78251224,17.0931067 0,13.2666844 0,8.54655333 C0,3.82642226 3.78251224,0 8.44847754,0 C10.5396784,0 12.4534227,0.768601739 13.9287229,2.04178795 C15.4034262,0.768722332 17.3173067,0 19.4086716,0 Z" id="Left" fill="#ED0006"></path>
                            <path d="M19.4086645,0 C24.0746298,0 27.857142,3.82642226 27.857142,8.54655333 C27.857142,13.2666844 24.0746298,17.0931067 19.4086645,17.0931067 C17.3171556,17.0931067 15.4031555,16.3242785 13.9277672,15.050756 C15.7454361,13.4831662 16.896948,11.1508958 16.896948,8.54655333 C16.896948,5.94221083 15.7454361,3.60994049 13.9293678,2.04235066 C15.4031555,0.768828207 17.3171556,0 19.4086645,0 Z" id="Right" fill="#F9A000"></path>
                            <path d="M13.9290535,2.04210648 C15.7452978,3.60969845 16.8969386,5.94208403 16.8969386,8.54657222 C16.8969386,11.1510604 15.7452978,13.483446 13.9290535,15.051038 C12.1120382,13.4837426 10.9602507,11.1512258 10.9602507,8.54657163 C10.9602507,5.97195469 12.0856263,3.66323457 13.8659064,2.09634376 Z" id="Middle" fill="#FF5E00"></path>
                        </g>
                    </g>
                    <g id="Payment-Method/Visa" fill-rule="nonzero">
                        <rect id="BASE" stroke="#D3DCE6" fill="#FFFFFF" x="0.5" y="0.5" width="42.3333321" height="28.7142849" rx="4"></rect>
                        <path d="M25.4054069,10.5238092 C26.1336935,10.5238092 26.9362171,10.669005 27.6657837,10.958145 L27.228044,12.9796214 C26.4984774,12.6191352 25.6242771,12.4739394 24.8217538,12.5465373 C24.3110571,12.5465373 23.8733173,12.8356772 23.8003606,13.3413592 C23.8003606,14.4240695 27.228044,14.5680134 27.228044,17.0238256 C27.228044,18.9739557 25.5513203,20.2732083 22.8532038,20.2018621 C21.9777239,20.2018621 21.0305673,20.0566663 20.1550873,19.6961801 L20.5928273,17.6734521 C21.3940707,18.0351899 22.2695505,18.251732 23.1450304,18.251732 C23.873317,18.251732 24.6028839,17.9625919 24.6028839,17.3129658 C24.6758406,16.8798817 24.3110572,16.5907414 23.3639006,16.1576573 C22.4884206,15.7233216 21.2481573,15.0023494 21.2481573,13.6292476 C21.2481573,11.8243134 22.999117,10.5238092 25.4054069,10.5238092 Z M9.80035409,10.7403462 C10.3840074,10.7403462 10.8217472,11.174682 10.8947039,11.6791123 L11.9160973,17.0964182 L14.5399774,10.7403462 L17.0921803,10.7403462 L13.1550806,20.1292581 L10.5299206,20.1292581 L8.56137077,12.61913 C8.46793505,12.2736641 8.26954429,11.9682522 7.97771766,11.8243081 C7.24943104,11.4625702 6.44690771,11.174682 5.57142782,11.0294862 L5.57142782,10.7403462 L9.80035409,10.7403462 Z M20.5928288,10.7403462 L18.5513221,20.1292581 L16.0720756,20.1292581 L18.1135822,10.7403462 L20.5928288,10.7403462 Z M33.9362099,10.7403462 L35.9047603,20.1292581 L33.6443829,20.1292581 L33.3525566,18.757408 L30.216699,18.757408 L29.7072822,20.1292581 L27.1550784,20.1292581 L30.8003526,11.4625703 C30.9462659,11.0294862 31.3840059,10.7403462 31.821746,10.7403462 L33.9362099,10.7403462 Z M32.1865223,13.2687667 L30.873303,16.8072898 L32.9148088,16.8072898 L32.1865223,13.2687667 Z" id="visa-logo" fill="#172B85"></path>
                    </g>
                    <g id="Group-2" transform="translate(107.000000, 0.000000)">
                        <rect id="Rectangle" stroke="#D3DCE6" fill="#FFFFFF" fill-rule="nonzero" x="0" y="0" width="43" height="29.7692308" rx="3.14285714"></rect>
                        <path d="M11.628758,10.2522064 C11.2626348,10.6979848 10.6767754,11.0495784 10.0909159,10.9993507 C10.0176913,10.3966188 10.3045449,9.75620033 10.6401319,9.36064959 C11.0063174,8.90233011 11.6470797,8.575882 12.1658217,8.5507365 C12.2268319,9.17861391 11.9888362,9.79388691 11.628758,10.2522064 Z M12.1596522,11.1186177 C11.6435275,11.0880884 11.1725841,11.2783581 10.7921899,11.432018 C10.5474014,11.5308899 10.340129,11.6146237 10.1824,11.6146237 C10.0054145,11.6146237 9.78960435,11.5264561 9.54724638,11.4273943 L9.54724638,11.4273943 L9.54724638,11.4273943 L9.54724638,11.4273943 C9.22966957,11.2976131 8.8666,11.1492103 8.4858942,11.1563043 C7.61324348,11.1688453 6.8016029,11.6774558 6.35608551,12.4873689 C5.44070899,14.1071951 6.11808986,16.505645 7.00295507,17.8241052 C7.43625797,18.4770648 7.955,19.1927931 8.63845072,19.167711 C8.93913913,19.1560566 9.15544783,19.0616185 9.3792971,18.9638867 C9.63704783,18.8513971 9.90476957,18.7344736 10.3228043,18.7344736 C10.7263188,18.7344736 10.9823246,18.8482935 11.2281101,18.9576162 C11.4617435,19.0614918 11.6861536,19.1612504 12.0193101,19.1551699 C12.7271899,19.1425655 13.1727072,18.5022103 13.6059478,17.8492507 C14.0735261,17.148407 14.2790536,16.4644748 14.310213,16.3606625 L14.3138899,16.3486282 C14.313142,16.3478681 14.3073464,16.3451445 14.2971261,16.3403941 C14.1408304,16.2667311 12.9461159,15.7040293 12.9347116,14.1951093 C12.9231826,12.9285869 13.8822696,12.2869016 14.0332681,12.1858763 C14.042429,12.1797324 14.0486609,12.1756154 14.0514652,12.1734619 C13.4411768,11.2442185 12.4891942,11.1437632 12.1596522,11.1186177 Z M17.0600942,19.0860673 L17.0600942,9.29788085 L20.6300913,9.29788085 C22.4731087,9.29788085 23.7607406,10.6038 23.7607406,12.5124511 C23.7607406,14.4211655 22.4486797,15.7396257 20.5812957,15.7396257 L18.5369261,15.7396257 L18.5369261,19.0860673 L17.0600942,19.0860673 Z M18.5368014,10.5787178 L20.2394145,10.5787178 C21.5209391,10.5787178 22.2532478,11.2819051 22.2532478,12.5187849 C22.2532478,13.7556015 21.5209391,14.4651226 20.2333072,14.4651226 L18.5368014,14.4651226 L18.5368014,10.5787178 Z M28.6367536,17.9120195 C28.2462014,18.6779755 27.3857029,19.1614404 26.4581493,19.1614404 C25.0850159,19.1614404 24.1269261,18.3201113 24.1269261,17.0518787 C24.1269261,15.7961239 25.054542,15.074125 26.7693696,14.9673992 L28.6123246,14.8543394 L28.6123246,14.3144396 C28.6123246,13.5170676 28.1057971,13.0838303 27.2026725,13.0838303 C26.4581493,13.0838303 25.9149783,13.479381 25.8051725,14.0821129 L24.4747899,14.0821129 C24.5174783,12.8138804 25.6769826,11.8909075 27.2453609,11.8909075 C28.9357594,11.8909075 30.0342536,12.8012759 30.0342536,14.2139843 L30.0342536,19.0860673 L28.6672899,19.0860673 L28.6672899,17.9120195 L28.6367536,17.9120195 Z M26.8546841,17.9999337 C26.0674725,17.9999337 25.5670522,17.6106535 25.5670522,17.0141921 C25.5670522,16.3989191 26.0491507,16.0409917 26.9706594,15.9844935 L28.6122623,15.8777676 L28.6122623,16.4302718 C28.6122623,17.3469741 27.8555246,17.9999337 26.8546841,17.9999337 Z M34.5683855,19.4690769 C33.9764812,21.1831512 33.2990754,21.7481966 31.858887,21.7481966 C31.7490188,21.7481966 31.3828333,21.7356555 31.2973942,21.71051 L31.2973942,20.5364622 C31.3889406,20.5490033 31.6147841,20.5615444 31.7306971,20.5615444 C32.3836739,20.5615444 32.7498594,20.27899 32.9756406,19.5444501 L33.1098754,19.1112128 L30.6078362,11.9850923 L32.1517855,11.9850923 L33.891042,17.767607 L33.9215159,17.767607 L35.6607725,11.9850923 L37.1620333,11.9850923 L34.5683855,19.4690769 Z" id="Shape" fill="#000000"></path>
                    </g>
                </g>
            </g>
        </g>
    </g>
</svg>