<?xml version="1.0" encoding="UTF-8"?>
<svg width="44px" height="31px" viewBox="0 0 44 31" version="1.1" xmlns="http://www.w3.org/2000/svg" xmlns:xlink="http://www.w3.org/1999/xlink">
    <title>Group 2</title>
    <g id="Page-1" stroke="none" stroke-width="1" fill="none" fill-rule="evenodd">
        <g id="Group-2" transform="translate(1, 1)" fill-rule="nonzero">
            <rect id="BASE" stroke="#D3DCE6" fill="#FFFFFF" x="0" y="0" width="42.3333321" height="28.7142849" rx="4"></rect>
            <g id="Revolut-Download-Link" transform="translate(5, 8)" fill="#000000">
                <polygon id="Path" points="1.82792666 2.48392857 0 2.48392857 0 10.0982143 1.82792666 10.0982143"></polygon>
                <path d="M7.58251058,2.925 C7.58251058,1.3 6.29619182,0 4.73906911,0 L0,0 L0,1.625 L4.49083216,1.625 C5.21297602,1.625 5.79971791,2.20535714 5.79971791,2.90178571 C5.79971791,3.25 5.68688294,3.59821429 5.43864598,3.85357143 C5.19040902,4.10892857 4.87447108,4.24821429 4.53596615,4.24821429 L2.77574048,4.24821429 C2.7080395,4.24821429 2.6629055,4.29464286 2.6629055,4.36428571 L2.6629055,5.80357143 C2.6629055,5.82678571 2.6629055,5.85 2.6854725,5.87321429 L5.66431594,10.1214286 L7.83074752,10.1214286 L4.87447108,5.85 C6.36389281,5.78035714 7.58251058,4.48035714 7.58251058,2.925 Z" id="Path"></path>
                <path d="M18.1438646,3.11071429 C18.1438646,4.99107143 16.8575458,6.22142857 14.8942172,6.22142857 L12.3441467,6.22142857 L12.3441467,10.0982143 L11.1255289,10.0982143 L11.1255289,0 L14.8942172,0 C16.8575458,0 18.1438646,1.20714286 18.1438646,3.11071429 Z M14.7813823,5.06071429 C16.067701,5.06071429 16.9026798,4.29464286 16.9026798,3.0875 C16.9026798,1.88035714 16.090268,1.16071429 14.8039492,1.16071429 L12.3441467,1.16071429 L12.3441467,5.08392857 L14.7813823,5.08392857 L14.7813823,5.06071429 Z" id="Shape"></path>
                <path d="M18.4598025,8.05535712 C18.4598025,6.59285714 19.4527504,5.75714286 21.348378,5.75714286 L23.4471086,5.75714286 L23.4471086,5.24642857 C23.4471086,4.29464286 22.7926657,3.71428571 21.6643159,3.71428571 C20.6488011,3.71428571 19.9717913,4.20178571 19.8363893,4.94464286 L18.6854725,4.94464286 C18.8434415,3.50535714 19.9943583,2.64642857 21.70945,2.64642857 C23.5373766,2.64642857 24.5980254,3.575 24.5980254,5.29285714 L24.5980254,10.0982143 L23.6050775,10.0982143 L23.5148096,8.9375 C23.0634697,9.61071432 22.3413258,10.1678571 21.1227081,10.1678571 C19.5204513,10.1910714 18.4598025,9.37857144 18.4598025,8.05535712 Z M21.190409,9.19285712 C22.6121298,9.19285712 23.4471086,8.33392856 23.4471086,7.10357143 L23.4471086,6.73214286 L21.235543,6.73214286 C20.2200282,6.73214286 19.6332863,7.12678571 19.6332863,7.9625 C19.6332863,8.70535712 20.2425952,9.19285712 21.190409,9.19285712 Z" id="Shape"></path>
                <path d="M26.4259521,2.73928571 L28.6375177,8.6125 L30.7813823,2.73928571 L32,2.73928571 L28.7052186,11.3517857 C28.2538787,12.5357143 27.9830748,13 26.96756,13 L25.5909732,13 L25.5909732,11.9089286 L26.606488,11.9089286 C27.2609309,11.9089286 27.3737659,11.7464286 27.6445698,11.05 L28.0056417,10.1446429 L25.2073343,2.73928571 L26.4259521,2.73928571 Z" id="Path"></path>
            </g>
        </g>
    </g>
</svg>