<?xml version="1.0" encoding="UTF-8"?>
<svg width="29px" height="17px" viewBox="0 0 29 17" version="1.1" xmlns="http://www.w3.org/2000/svg" xmlns:xlink="http://www.w3.org/1999/xlink">
    <title>arrow-right-svgrepo-com</title>
    <g id="Checkout-1.1" stroke="none" stroke-width="1" fill="none" fill-rule="evenodd">
        <g id="01.-Full-Checkout-1.1" transform="translate(-20.000000, -1034.000000)" fill="#FFFFFF" fill-rule="nonzero">
            <g id="arrow-right-svgrepo-com" transform="translate(20.000000, 1034.000000)">
                <path d="M20.2059384,14.7234567 C19.690608,15.2443276 19.690608,16.0885759 20.2059384,16.6094468 C20.7211368,17.1301844 21.5565367,17.1301844 22.0717352,16.6094468 L28.2272023,10.3877996 C29.2575992,9.34619106 29.2575992,7.65756111 28.2272023,6.6159526 L22.0679091,0.39057152 C21.5527107,-0.130192729 20.7174427,-0.130192729 20.2021123,0.390584855 C19.6869138,0.911349104 19.6869138,1.75569075 20.2021123,2.276455 L25.0389089,7.1652274 L1.31933024,7.1652274 C0.590690533,7.1652274 0,7.76224203 0,8.49874233 C0,9.23510927 0.590690533,9.83225726 1.31933024,9.83225726 L25.0451097,9.83225726 L20.2059384,14.7234567 Z" id="Path"></path>
            </g>
        </g>
    </g>
</svg>