<?xml version="1.0" encoding="UTF-8"?>
<svg width="18px" height="18px" viewBox="0 0 18 18" version="1.1" xmlns="http://www.w3.org/2000/svg" xmlns:xlink="http://www.w3.org/1999/xlink">
    <title>shopping-cart-fill-svgrepo-com</title>
    <g id="Checkout-1.1" stroke="none" stroke-width="1" fill="none" fill-rule="evenodd">
        <g id="01.-Full-Checkout-Copy-4" transform="translate(-18.000000, -447.000000)" fill="#FFFFFF" fill-rule="nonzero">
            <g id="Group-5" transform="translate(11.000000, 440.000000)">
                <g id="shopping-cart-fill-svgrepo-com" transform="translate(7.000000, 7.000000)">
                    <path d="M17.9892527,4.27703872 L16.9761513,10.0623114 C16.8036399,11.0499329 15.9751652,11.7678511 15.0084594,11.7674231 L5.34427775,11.7674231 L5.70792516,13.8440271 L14.6666628,13.8440271 C15.5384227,13.8435888 16.3101344,14.4292158 16.574426,15.2917667 C16.8387176,16.1543176 16.53476,17.0952689 15.8230068,17.6179104 C15.1112535,18.1405519 14.1555206,18.1245931 13.4603213,17.5784584 C12.765122,17.0323237 12.4904624,16.0817107 12.78133,15.2284298 L7.88533125,15.2284298 C8.21010057,16.1786588 7.83062973,17.2338127 6.98551184,17.7304614 C6.14039395,18.2271101 5.07380795,18.0217573 4.4563721,17.243519 C3.83893625,16.4652808 3.84904558,15.3390126 4.48034381,14.572858 L2.17089776,1.38440283 L0.66666649,1.38440283 C0.298476754,1.38440283 0,1.07449373 0,0.692201486 C0,0.309909237 0.298476754,0 0.66666649,0 L2.17089776,0 C2.81539765,-0.000296264227 3.36774283,0.478337812 3.48274908,1.13678338 L3.88972897,3.46100688 L17.3333287,3.46100688 C17.5310062,3.46102657 17.7184837,3.55212345 17.8451457,3.70970311 C17.9718078,3.86728276 18.0245939,4.07509654 17.9892527,4.27703872 Z" id="Path"></path>
                </g>
            </g>
        </g>
    </g>
</svg>