<?xml version="1.0" encoding="UTF-8"?>
<svg width="14px" height="15px" viewBox="0 0 14 15" version="1.1" xmlns="http://www.w3.org/2000/svg" xmlns:xlink="http://www.w3.org/1999/xlink">
    <title>lock-keyhole-svgrepo-com</title>
    <g id="Checkout-1.1" stroke="none" stroke-width="1" fill="none" fill-rule="evenodd" fill-opacity="0.653163243">
        <g id="01.-Full-Checkout-1.1" transform="translate(-457.000000, -1586.000000)" fill="#005EFF">
            <g id="Group-10" transform="translate(170.000000, 957.000000)">
                <g id="Group-32" transform="translate(274.000000, 623.000000)">
                    <g id="Group-28" transform="translate(13.200000, 5.793431)">
                        <g id="lock-keyhole-svgrepo-com" transform="translate(0.000000, 0.670774)">
                            <path d="M2.14288878,5.90670044 L2.14288878,4.52834064 C2.14288878,2.02740854 4.13549842,0 6.59350394,0 C9.05149627,0 11.0441191,2.02740854 11.0441191,4.52834064 L11.0441191,5.90670044 C11.7791629,5.96258352 12.2577854,6.10353231 12.6076367,6.45956051 C13.1870079,7.04904984 13.1870079,7.99778751 13.1870079,9.89526287 C13.1870079,11.7927382 13.1870079,12.7414759 12.6076367,13.3309652 C12.0282655,13.9204545 11.0958122,13.9204545 9.23090551,13.9204545 L3.95610236,13.9204545 C2.09117593,13.9204545 1.15871601,13.9204545 0.579358004,13.3309652 C0,12.7414759 0,11.7927382 0,9.89526287 C0,7.99778751 0,7.04904984 0.579358004,6.45956051 C0.929229103,6.10353231 1.40787793,5.96258352 2.14288878,5.90670044 Z M3.13191437,4.52834064 C3.13191437,2.58317347 4.68172406,1.00629792 6.59350394,1.00629792 C8.5052904,1.00629792 10.0550935,2.58317347 10.0550935,4.52834064 L10.0550935,5.87248631 C9.8025623,5.87007119 9.52860221,5.87007119 9.23090551,5.87007119 L3.95610236,5.87007119 C3.65839907,5.87007119 3.38445216,5.87007119 3.13191437,5.87248631 L3.13191437,4.52834064 Z M7.91220472,9.89526287 C7.91220472,10.6363007 7.32182238,11.2369934 6.59350394,11.2369934 C5.86518549,11.2369934 5.27480315,10.6363007 5.27480315,9.89526287 C5.27480315,9.15422508 5.86518549,8.55353231 6.59350394,8.55353231 C7.32182238,8.55353231 7.91220472,9.15422508 7.91220472,9.89526287 Z" id="Shape"></path>
                        </g>
                    </g>
                </g>
            </g>
        </g>
    </g>
</svg>