<?xml version="1.0" encoding="UTF-8"?>
<svg width="22px" height="22px" viewBox="0 0 22 22" version="1.1" xmlns="http://www.w3.org/2000/svg" xmlns:xlink="http://www.w3.org/1999/xlink">
    <title>Shape</title>
    <g id="Checkout-1.1" stroke="none" stroke-width="1" fill="none" fill-rule="evenodd">
        <g id="01.-Full-Checkout-1.1" transform="translate(-970.000000, -1174.000000)" fill="#3FCAAA">
            <g id="Group-37" transform="translate(925.000000, 1140.000000)">
                <g id="Group-18" transform="translate(17.694370, 25.000000)">
                    <path d="M32.9932059,9.4268072 C34.4001417,9.10917249 36.106955,9 38.1389634,9 C40.1709717,9 41.8777634,9.10917249 43.2846884,9.4268072 C44.7039634,9.74722624 45.8834967,10.2942222 46.7908967,11.2160034 C47.6982967,12.1377846 48.2367134,13.3361067 48.55218,14.7778548 C48.86483,16.207123 48.9722967,17.9410286 48.9722967,20.005291 C48.9722967,22.0695534 48.86483,23.803437 48.55218,25.2326942 C48.2367134,26.6744974 47.6982967,27.8727534 46.7908967,28.7945566 C45.8834967,29.7163598 44.7039634,30.2633228 43.2846884,30.5837968 C41.8777634,30.9014095 40.1709717,31.010582 38.1389634,31.010582 C36.106955,31.010582 34.4001417,30.9014095 32.9932059,30.5837968 C31.573985,30.2633228 30.3943867,29.7163598 29.4870084,28.7945566 C28.57963,27.8727534 28.0411809,26.6744974 27.7257684,25.2326942 C27.4130967,23.803437 27.30563,22.0695534 27.30563,20.005291 C27.30563,17.9410286 27.4130967,16.207123 27.7257684,14.7778548 C28.0411809,13.3361067 28.57963,12.1377846 29.4870084,11.2160034 C30.3943867,10.2942222 31.573985,9.74722624 32.9932059,9.4268072 Z M42.1549884,17.0260377 C42.57803,17.4558273 42.57803,18.1526603 42.1549884,18.5824169 L38.1652884,22.6354455 C37.5524467,23.2580148 36.5588134,23.2580148 35.94595,22.6354455 L37.05563,21.5081735 L35.94595,22.6354455 L34.1229275,20.7834751 C33.6998642,20.3537185 33.6998642,19.6568635 34.1229275,19.2271069 C34.5460017,18.7973503 35.231925,18.7973503 35.6549992,19.2271069 L37.05563,20.649981 L40.6229384,17.0260377 C41.04598,16.596259 41.7319467,16.596259 42.1549884,17.0260377 Z" id="Shape"></path>
                </g>
            </g>
        </g>
    </g>
</svg>