<?xml version="1.0" encoding="UTF-8"?>
<svg width="16px" height="17px" viewBox="0 0 16 17" version="1.1" xmlns="http://www.w3.org/2000/svg" xmlns:xlink="http://www.w3.org/1999/xlink">
    <title>thumbs-up-fill-svgrepo-com</title>
    <g id="Checkout-1.1" stroke="none" stroke-width="1" fill="none" fill-rule="evenodd">
        <g id="01.-Full-Checkout-1.1" transform="translate(-242.000000, -1662.000000)" fill="#37D348" fill-rule="nonzero">
            <g id="Group-10" transform="translate(170.000000, 957.000000)">
                <g id="Group-33" transform="translate(72.000000, 696.800000)">
                    <g id="thumbs-up-fill-svgrepo-com" transform="translate(0.000000, 9.000000)">
                        <path d="M3.22942646,7 L3.22942646,16 L1.61971234,16 C0.719872151,16 0,15.28 0,14.39 L0,8.62 C0,7.73 0.729870376,7 1.61971234,7 L3.22942646,7 Z M14.487417,5.5 L9.70826582,5.5 L9.70826582,2 C9.70826582,0.9 8.80842563,0 7.71861918,0 L7.62863516,0 C7.22870619,0 6.86877011,0.24 6.70879852,0.61 L3.97929328,7 L3.97929328,16 L13.1776497,16 C13.90752,16 14.5274099,15.48 14.6573869,14.76 L15.9771525,7.26 C16.1371241,6.34 15.4372484,5.5 14.4974153,5.5 L14.487417,5.5 Z" id="Shape"></path>
                    </g>
                </g>
            </g>
        </g>
    </g>
</svg>