<?xml version="1.0" encoding="UTF-8"?>
<svg width="24px" height="24px" viewBox="0 0 24 24" version="1.1" xmlns="http://www.w3.org/2000/svg" xmlns:xlink="http://www.w3.org/1999/xlink">
    <title>logout-svgrepo-com</title>
    <g id="Symbols" stroke="none" stroke-width="1" fill="none" fill-rule="evenodd">
        <g id="NAV-2.1" transform="translate(-1213.000000, -29.000000)" fill="#DFE4F2" fill-rule="nonzero">
            <g id="logout-svgrepo-com" transform="translate(1213.000000, 29.000000)">
                <path d="M24,5.54663204 L24,18.2940012 C24,19.629481 23.14284,20.9649607 21.79596,21.4504806 L15.67344,23.7572401 C15.30612,23.87856 14.9388,24 14.44896,24 C13.83672,24 13.10208,23.7572401 12.48984,23.3930401 C12.24492,23.1501602 11.8776,22.9074002 11.75508,22.6645203 L7.102044,22.6645203 C5.265312,22.6645203 3.673464,21.2077206 3.673464,19.265281 L3.673464,18.0512413 C3.673464,17.5656014 4.04082,17.0799615 4.65306,17.0799615 C5.265312,17.0799615 5.632656,17.4441614 5.632656,18.0512413 L5.632656,19.265281 C5.632656,20.1151208 6.367344,20.7220807 7.102044,20.7220807 L11.14284,20.7220807 L11.14284,3.23996854 L7.102044,3.23996854 C6.244896,3.23996854 5.632656,3.84698841 5.632656,4.69681622 L5.632656,5.91084396 C5.632656,6.39645985 5.265312,6.88207574 4.65306,6.88207574 C4.04082,6.88207574 3.673464,6.39645985 3.673464,5.91084396 L3.673464,4.69681622 C3.673464,2.87575662 5.142864,1.29750497 7.102044,1.29750497 L11.75508,1.29750497 C12,1.05469702 12.24492,0.811889072 12.48984,0.569081126 C13.4694,-0.0379387417 14.57148,-0.159342715 15.67344,0.204869205 L21.79596,2.5115447 C23.02044,2.87575662 24,4.21120033 24,5.54663204 Z" id="Path"></path>
                <path d="M3.428568,15.3802819 C3.183672,15.3802819 2.938776,15.2589619 2.816328,15.1375219 L0.367344,12.7094425 C0.244896,12.5880025 0.244896,12.4666825 0.122448,12.4666825 C0.122448,12.3452425 0,12.2238026 0,12.1024826 C0,11.9810426 0,11.8596027 0.122448,11.7382827 C0.122448,11.6168427 0.244896,11.4954027 0.367344,11.4954027 L2.816328,9.06734727 C3.183672,8.70313535 3.795924,8.70313535 4.163268,9.06734727 C4.530612,9.43155919 4.530612,10.0386031 4.163268,10.402803 L3.30612,11.2526428 L8.326536,11.2526428 C8.816328,11.2526428 9.30612,11.6168427 9.30612,12.2238026 C9.30612,12.8308824 8.816328,12.9523224 8.326536,12.9523224 L3.183672,12.9523224 L4.04082,13.8020422 C4.408164,14.1662422 4.408164,14.773322 4.04082,15.1375219 C3.918372,15.2589619 3.673464,15.3802819 3.428568,15.3802819 Z" id="Path"></path>
            </g>
        </g>
    </g>
</svg>