<?xml version="1.0" encoding="UTF-8"?>
<svg width="35px" height="28px" viewBox="0 0 35 28" version="1.1" xmlns="http://www.w3.org/2000/svg" xmlns:xlink="http://www.w3.org/1999/xlink">
    <title>ic_mail</title>
    <defs>
        <path d="M31.3875,1.02318154e-13 L3.4875,1.02318154e-13 C1.569375,1.02318154e-13 0.0174375,1.569375 0.0174375,3.4875 L0,24.4125 C0,26.330625 1.569375,27.9 3.4875,27.9 L31.3875,27.9 C33.305625,27.9 34.875,26.330625 34.875,24.4125 L34.875,3.4875 C34.875,1.569375 33.305625,1.02318154e-13 31.3875,1.02318154e-13 L31.3875,1.02318154e-13 Z M31.3875,6.975 L17.4375,15.69375 L3.4875,6.975 L3.4875,3.4875 L17.4375,12.20625 L31.3875,3.4875 L31.3875,6.975 L31.3875,6.975 Z" id="path-1"></path>
    </defs>
    <g id="Checkout" stroke="none" stroke-width="1" fill="none" fill-rule="evenodd">
        <g id="03.-Payment-Success" transform="translate(-948.000000, -174.000000)">
            <g id="Group-18" transform="translate(925.000000, 147.000000)">
                <g id="Group-17" transform="translate(23.000000, 27.000000)">
                    <g id="ic_mail">
                        <mask id="mask-2" fill="white">
                            <use xlink:href="#path-1"></use>
                        </mask>
                        <use id="Mask" fill="#29CFB1" xlink:href="#path-1"></use>
                    </g>
                </g>
            </g>
        </g>
    </g>
</svg>