<?xml version="1.0" encoding="UTF-8"?>
<svg width="14px" height="17px" viewBox="0 0 14 17" version="1.1" xmlns="http://www.w3.org/2000/svg" xmlns:xlink="http://www.w3.org/1999/xlink">
    <title>moneyback</title>
    <defs>
        <filter id="filter-1">
            <feColorMatrix in="SourceGraphic" type="matrix" values="0 0 0 0 0.215686 0 0 0 0 0.827451 0 0 0 0 0.282353 0 0 0 1. 0"></feColorMatrix>
        </filter>
    </defs>
    <g id="Checkout" stroke="none" stroke-width="1" fill="none" fill-rule="evenodd">
        <g id="01.-Full-Checkout" transform="translate(-375.000000, -1547.000000)">
            <g id="Group-8" transform="translate(185.000000, 862.000000)">
                <g id="Group-22" transform="translate(190.000000, 685.000000)">
                    <g filter="url(#filter-1)" id="moneyback">
                        <g>
                            <path d="M7.0511,0.0021 L14,2.1 L14,9.8 C14,13.6661 10.8661,16.8 7,16.8 C3.199,16.8 0.1064,13.7718 0.0028,9.996 L0,9.8 L0,2.1 L0.0784,2.0776 L7.0511,0.0021 Z M7,2.8 C6.58,2.8 6.3,3.08 6.3,3.5 L6.3,4.27 C5.11,4.41 4.2,5.39 4.2,6.65 C4.2,8.12 5.32,8.68 6.3,8.96 L6.3,11.13 C5.9101,10.9998 5.6406,10.6288 5.6042,10.2396 L5.6,10.15 C5.6,9.73 5.32,9.45 4.9,9.45 C4.48,9.45 4.2,9.73 4.2,10.15 C4.2,11.41 5.11,12.39 6.3,12.53 L6.3,13.3 C6.3,13.72 6.58,14 7,14 C7.42,14 7.7,13.72 7.7,13.3 L7.7,12.53 C8.89,12.39 9.8,11.34 9.8,10.15 C9.8,8.68 8.68,8.12 7.7,7.84 L7.7,5.67 C8.0899,5.8002 8.3594,6.1712 8.3958,6.5604 L8.4,6.65 C8.4,7.07 8.68,7.35 9.1,7.35 C9.52,7.35 9.8,7.07 9.8,6.65 C9.8,5.39 8.89,4.41 7.7,4.27 L7.7,3.5 C7.7,3.08 7.42,2.8 7,2.8 Z M7.7,9.31 C8.19,9.52 8.4,9.73 8.4,10.15 C8.4,10.64 8.12,10.99 7.7,11.13 L7.7,9.31 Z M6.3,5.67 L6.3,7.49 C5.81,7.28 5.6,7.07 5.6,6.65 C5.6,6.16 5.88,5.81 6.3,5.67 Z" id="Shape" fill="#37D348"></path>
                        </g>
                    </g>
                </g>
            </g>
        </g>
    </g>
</svg>