<?xml version="1.0" encoding="UTF-8"?>
<svg width="14px" height="17px" viewBox="0 0 14 17" version="1.1" xmlns="http://www.w3.org/2000/svg" xmlns:xlink="http://www.w3.org/1999/xlink">
    <title>moneyback</title>
    <g id="Checkout-1.1" stroke="none" stroke-width="1" fill="none" fill-rule="evenodd">
        <g id="01.-Full-Checkout-1.1" transform="translate(-317.000000, -1622.000000)" fill="#37D348">
            <g id="Group-10" transform="translate(170.000000, 957.000000)">
                <g id="Group-22" transform="translate(147.000000, 664.000000)">
                    <g id="moneyback" transform="translate(0.000000, 1.002100)">
                        <path d="M7.0511,0 L14,2.0979 L14,9.7979 C14,13.664 10.8661,16.7979 7,16.7979 C3.199,16.7979 0.1064,13.7697 0.0028,9.9939 L0,9.7979 L0,2.0979 L0.0784,2.0755 L7.0511,0 Z M7,2.7979 C6.58,2.7979 6.3,3.0779 6.3,3.4979 L6.3,4.2679 C5.11,4.4079 4.2,5.3879 4.2,6.6479 C4.2,8.1179 5.32,8.6779 6.3,8.9579 L6.3,11.1279 C5.9101,10.9977 5.6406,10.6267 5.6042,10.2375 L5.6,10.1479 C5.6,9.7279 5.32,9.4479 4.9,9.4479 C4.48,9.4479 4.2,9.7279 4.2,10.1479 C4.2,11.4079 5.11,12.3879 6.3,12.5279 L6.3,13.2979 C6.3,13.7179 6.58,13.9979 7,13.9979 C7.42,13.9979 7.7,13.7179 7.7,13.2979 L7.7,12.5279 C8.89,12.3879 9.8,11.3379 9.8,10.1479 C9.8,8.6779 8.68,8.1179 7.7,7.8379 L7.7,5.6679 C8.0899,5.7981 8.3594,6.1691 8.3958,6.5583 L8.4,6.6479 C8.4,7.0679 8.68,7.3479 9.1,7.3479 C9.52,7.3479 9.8,7.0679 9.8,6.6479 C9.8,5.3879 8.89,4.4079 7.7,4.2679 L7.7,3.4979 C7.7,3.0779 7.42,2.7979 7,2.7979 Z M7.7,9.3079 C8.19,9.5179 8.4,9.7279 8.4,10.1479 C8.4,10.6379 8.12,10.9879 7.7,11.1279 L7.7,9.3079 Z M6.3,5.6679 L6.3,7.4879 C5.81,7.2779 5.6,7.0679 5.6,6.6479 C5.6,6.1579 5.88,5.8079 6.3,5.6679 Z" id="Shape"></path>
                    </g>
                </g>
            </g>
        </g>
    </g>
</svg>