<?xml version="1.0" encoding="UTF-8"?>
<svg width="22px" height="22px" viewBox="0 0 22 22" version="1.1" xmlns="http://www.w3.org/2000/svg" xmlns:xlink="http://www.w3.org/1999/xlink">
    <title>add-circle-svgrepo-com-2</title>
    <g id="Checkout-1.1" stroke="none" stroke-width="1" fill="none" fill-rule="evenodd">
        <g id="01.-Full-Checkout-1.1" transform="translate(-773.000000, -761.000000)" fill="#3FCAAA">
            <g id="Group-25-Copy" transform="translate(170.000000, 731.000000)">
                <g id="Group-3" transform="translate(597.000000, 24.000000)">
                    <g id="add-circle-svgrepo-com-2" transform="translate(6.000000, 6.000000)">
                        <path d="M11,22 C17.07508,22 22,17.07508 22,11 C22,4.924865 17.07508,0 11,0 C4.924865,0 0,4.924865 0,11 C0,17.07508 4.924865,22 11,22 Z M11.825,7.7 C11.825,7.244369 11.45562,6.875 11,6.875 C10.54438,6.875 10.175,7.244369 10.175,7.7 L10.175,10.175 L7.7,10.175 C7.244369,10.175 6.875,10.54438 6.875,11 C6.875,11.45562 7.244369,11.825 7.7,11.825 L10.175,11.825 L10.175,14.3 C10.175,14.75562 10.54438,15.125 11,15.125 C11.45562,15.125 11.825,14.75562 11.825,14.3 L11.825,11.825 L14.3,11.825 C14.75562,11.825 15.125,11.45562 15.125,11 C15.125,10.54438 14.75562,10.175 14.3,10.175 L11.825,10.175 L11.825,7.7 Z" id="Shape"></path>
                    </g>
                </g>
            </g>
        </g>
    </g>
</svg>