<?xml version="1.0" encoding="UTF-8"?>
<svg width="18px" height="18px" viewBox="0 0 18 18" version="1.1" xmlns="http://www.w3.org/2000/svg" xmlns:xlink="http://www.w3.org/1999/xlink">
    <title>add-circle-svgrepo-com</title>
    <g id="Checkout-1.1" stroke="none" stroke-width="1" fill="none" fill-rule="evenodd">
        <g id="01.-Full-Checkout-1.1-Copy" transform="translate(-907.000000, -157.000000)" fill="#FFFFFF" fill-rule="nonzero">
            <g id="Group-7" transform="translate(900.000000, 150.000000)">
                <g id="add-circle-svgrepo-com" transform="translate(7.000000, 7.000000)">
                    <path d="M9,-3.99680289e-16 C4.02943725,-3.99680289e-16 0,4.02943725 0,9 C0,13.9705627 4.02943725,18 9,18 C13.9705627,18 18,13.9705627 18,9 C18,6.61305159 17.0517884,4.32386638 15.363961,2.63603897 C13.6761336,0.948211563 11.3869484,-3.99680289e-16 9,-3.99680289e-16 L9,-3.99680289e-16 Z M12.6,9.9 L9.9,9.9 L9.9,12.6 C9.9,13.0970563 9.49705627,13.5 9,13.5 C8.50294373,13.5 8.1,13.0970563 8.1,12.6 L8.1,9.9 L5.4,9.9 C4.90294373,9.9 4.5,9.49705627 4.5,9 C4.5,8.50294373 4.90294373,8.1 5.4,8.1 L8.1,8.1 L8.1,5.4 C8.1,4.90294373 8.50294373,4.5 9,4.5 C9.49705627,4.5 9.9,4.90294373 9.9,5.4 L9.9,8.1 L12.6,8.1 C13.0970563,8.1 13.5,8.50294373 13.5,9 C13.5,9.49705627 13.0970563,9.9 12.6,9.9 Z" id="Shape"></path>
                </g>
            </g>
        </g>
    </g>
</svg>