<?xml version="1.0" encoding="UTF-8"?>
<svg width="17px" height="21px" viewBox="0 0 17 21" version="1.1" xmlns="http://www.w3.org/2000/svg" xmlns:xlink="http://www.w3.org/1999/xlink">
    <title>Icon</title>
    <defs>
        <path d="M10.5,0.875 L2.625,4.375 L2.625,9.625 C2.625,14.48125 5.985,19.0225 10.5,20.125 C15.015,19.0225 18.375,14.48125 18.375,9.625 L18.375,4.375 L10.5,0.875 L10.5,0.875 Z M10.5,10.49125 L16.625,10.49125 C16.16125,14.09625 13.755,17.3075 10.5,18.31375 L10.5,10.5 L4.375,10.5 L4.375,5.5125 L10.5,2.79125 L10.5,10.49125 L10.5,10.49125 Z" id="path-1"></path>
        <rect id="path-3" x="0" y="0" width="43.75" height="43.75"></rect>
    </defs>
    <g id="Checkout" stroke="none" stroke-width="1" fill="none" fill-rule="evenodd">
        <g id="02.-Redirect" transform="translate(-650.000000, -205.000000)">
            <g id="Group" transform="translate(585.000000, 200.000000)">
                <g id="Label/Pending" transform="translate(53.000000, 0.000000)">
                    <g id="Label">
                        <g id="ic_security" transform="translate(10.000000, 5.000000)">
                            <mask id="mask-2" fill="white">
                                <use xlink:href="#path-1"></use>
                            </mask>
                            <g id="Mask"></g>
                            <g id="Colors/White" mask="url(#mask-2)">
                                <g transform="translate(-11.375000, -11.375000)">
                                    <mask id="mask-4" fill="white">
                                        <use xlink:href="#path-3"></use>
                                    </mask>
                                    <use id="White" stroke="none" fill="#FFFFFF" fill-rule="evenodd" xlink:href="#path-3"></use>
                                </g>
                            </g>
                        </g>
                    </g>
                </g>
            </g>
        </g>
    </g>
</svg>