<?xml version="1.0" encoding="UTF-8"?>
<svg width="13px" height="14px" viewBox="0 0 13 14" version="1.1" xmlns="http://www.w3.org/2000/svg" xmlns:xlink="http://www.w3.org/1999/xlink">
    <title>Shape</title>
    <g id="Checkout-1.1" stroke="none" stroke-width="1" fill="none" fill-rule="evenodd">
        <g id="01.-Full-Checkout-1.1-Copy-4" transform="translate(-674.000000, -185.000000)" fill="#F79C07">
            <g id="Group-13" transform="translate(664.000000, 178.000000)">
                <g id="timer-svgrepo-com-2" transform="translate(10.540113, 7.733333)">
                    <path d="M6.22824859,0 C2.78848032,0 0,2.81314258 0,6.28333333 C0,9.75349267 2.78848032,12.5666667 6.22824859,12.5666667 C9.66798572,12.5666667 12.4564972,9.75349267 12.4564972,6.28333333 C12.4564972,2.81314258 9.66798572,0 6.22824859,0 Z M6.85107345,3.14166667 C6.85107345,2.79465073 6.57223476,2.51333333 6.22824859,2.51333333 C5.88426242,2.51333333 5.60542373,2.79465073 5.60542373,3.14166667 L5.60542373,6.28333333 C5.60542373,6.63036183 5.88426242,6.91166667 6.22824859,6.91166667 C6.57223476,6.91166667 6.85107345,6.63036183 6.85107345,6.28333333 L6.85107345,3.14166667 Z" id="Shape"></path>
                </g>
            </g>
        </g>
    </g>
</svg>