<?xml version="1.0" encoding="UTF-8"?>
<svg width="18px" height="18px" viewBox="0 0 18 18" version="1.1" xmlns="http://www.w3.org/2000/svg" xmlns:xlink="http://www.w3.org/1999/xlink">
    <!-- Generator: Sketch 60 (88103) - https://sketch.com -->
    <title>Group 3</title>
    <desc>Created with Sketch.</desc>
    <g id="CHECKOUT" stroke="none" stroke-width="1" fill="none" fill-rule="evenodd">
        <g id="Checkout-Blackdriday-V1-Copy" transform="translate(-422.000000, -786.000000)">
            <g id="Group-3" transform="translate(422.000000, 786.000000)">
                <rect id="Rectangle" fill-opacity="0.521880463" fill="#FF0000" x="0" y="0" width="18" height="18" rx="9"></rect>
                <g id="Regular-–-Basic/Close" transform="translate(4.500000, 4.500000)" fill="#FFFFFF">
                    <path d="M5.45459415,4.5 L8.01384349,7.05924933 C8.11825163,7.16365748 8.1792481,7.26305195 8.21060723,7.36651451 C8.24196636,7.46997706 8.24196636,7.57578591 8.21060723,7.67924847 C8.1792481,7.78271103 8.11825163,7.8821055 8.01384349,7.98651365 L7.98651365,8.01384349 C7.8821055,8.11825163 7.78271103,8.1792481 7.67924847,8.21060723 C7.57578591,8.24196636 7.46997706,8.24196636 7.36651451,8.21060723 C7.26305195,8.1792481 7.16365748,8.11825163 7.05924933,8.01384349 L4.5,5.45459415 L1.94075067,8.01384349 C1.83634252,8.11825163 1.73694805,8.1792481 1.63348549,8.21060723 C1.53002294,8.24196636 1.42421409,8.24196636 1.32075153,8.21060723 C1.21728897,8.1792481 1.1178945,8.11825163 1.01348635,8.01384349 L0.986156514,7.98651365 C0.88174837,7.8821055 0.820751902,7.78271103 0.789392772,7.67924847 C0.758033642,7.57578591 0.758033642,7.46997706 0.789392772,7.36651451 C0.820751902,7.26305195 0.88174837,7.16365748 0.986156514,7.05924933 L3.54540585,4.5 L0.986156514,1.94075067 C0.88174837,1.83634252 0.820751902,1.73694805 0.789392772,1.63348549 C0.758033642,1.53002294 0.758033642,1.42421409 0.789392772,1.32075153 C0.820751902,1.21728897 0.88174837,1.1178945 0.986156514,1.01348635 L1.01348635,0.986156514 C1.1178945,0.88174837 1.21728897,0.820751902 1.32075153,0.789392772 C1.42421409,0.758033642 1.53002294,0.758033642 1.63348549,0.789392772 C1.73694805,0.820751902 1.83634252,0.88174837 1.94075067,0.986156514 L4.5,3.54540585 L7.05924933,0.986156514 C7.16365748,0.88174837 7.26305195,0.820751902 7.36651451,0.789392772 C7.46997706,0.758033642 7.57578591,0.758033642 7.67924847,0.789392772 C7.78271103,0.820751902 7.8821055,0.88174837 7.98651365,0.986156514 L8.01384349,1.01348635 C8.11825163,1.1178945 8.1792481,1.21728897 8.21060723,1.32075153 C8.24196636,1.42421409 8.24196636,1.53002294 8.21060723,1.63348549 C8.1792481,1.73694805 8.11825163,1.83634252 8.01384349,1.94075067 L5.45459415,4.5 Z" id="Style"></path>
                </g>
            </g>
        </g>
    </g>
</svg>