<?xml version="1.0" encoding="UTF-8"?>
<svg width="38px" height="38px" viewBox="0 0 38 38" version="1.1" xmlns="http://www.w3.org/2000/svg" xmlns:xlink="http://www.w3.org/1999/xlink">
    <title>Group 2</title>
    <g id="Checkout-1.1" stroke="none" stroke-width="1" fill="none" fill-rule="evenodd">
        <g id="01.-Full-Checkout-1.1" transform="translate(-192.000000, -651.000000)">
            <g id="Group-25" transform="translate(170.000000, 630.000000)">
                <g id="Group-42" transform="translate(22.000000, 19.000000)">
                    <g id="Group-2" transform="translate(0.000000, 2.000000)">
                        <path d="M9.975133,0.736858 C12.442682,0.18848 15.43617,0 19,0 C22.56383,0 25.55728,0.18848 28.02481,0.736858 C30.514,1.290043 32.58272,2.2344 34.17416,3.825802 C35.7656,5.417204 36.7099,7.486038 37.26318,9.975133 C37.81152,12.442682 38,15.43617 38,19 C38,22.56383 37.81152,25.55728 37.26318,28.02481 C36.7099,30.514 35.7656,32.58272 34.17416,34.17416 C32.58272,35.7656 30.514,36.7099 28.02481,37.26318 C25.55728,37.81152 22.56383,38 19,38 C15.43617,38 12.442682,37.81152 9.975133,37.26318 C7.486038,36.7099 5.417204,35.7656 3.825802,34.17416 C2.2344,32.58272 1.290043,30.514 0.736858,28.02481 C0.18848,25.55728 0,22.56383 0,19 C0,15.43617 0.18848,12.442682 0.736858,9.975133 C1.290043,7.486038 2.2344,5.417204 3.825802,3.825802 C5.417204,2.2344 7.486038,1.290043 9.975133,0.736858 Z" id="Path-Copy" fill="#3FCAAA"></path>
                        <g id="Group-14" transform="translate(10.687500, 11.875000)" stroke="#FFFFFF" stroke-linecap="round" stroke-linejoin="round" stroke-width="1.672704">
                            <g id="users">
                                <path d="M12.9545455,15.4375 L12.9545455,13.7222222 C12.9545455,11.8275787 11.5045586,10.2916667 9.71590909,10.2916667 L3.23863636,10.2916667 C1.44998689,10.2916667 0,11.8275787 0,13.7222222 L0,15.4375" id="Path"></path>
                                <ellipse id="Oval" cx="6.47727273" cy="3.43055556" rx="3.23863636" ry="3.43055556"></ellipse>
                                <path d="M17.8125,15.4375 L17.8125,13.6842348 C17.8117661,12.0862368 17.14588,10.6911658 16.1931818,10.2916667" id="Path"></path>
                                <path d="M11.3352273,0 C13.2409484,0.401193325 14.5738636,1.81309611 14.5738636,3.43055556 C14.5738636,5.04801501 13.2409484,6.45991779 11.3352273,6.86111111" id="Path"></path>
                            </g>
                        </g>
                    </g>
                </g>
            </g>
        </g>
    </g>
</svg>