<?xml version="1.0" encoding="UTF-8"?>
<svg width="32px" height="32px" viewBox="0 0 32 32" version="1.1" xmlns="http://www.w3.org/2000/svg" xmlns:xlink="http://www.w3.org/1999/xlink">
    <title>Group 2</title>
    <g id="Checkout-1.1" stroke="none" stroke-width="1" fill="none" fill-rule="evenodd">
        <g id="01.-Full-Checkout-1.1" transform="translate(-241.000000, -1214.000000)">
            <g id="Group-10" transform="translate(170.000000, 957.000000)">
                <g id="Group-21" transform="translate(43.000000, 248.000000)">
                    <g id="Group-28" transform="translate(28.000000, 9.000000)">
                        <path d="M8.400112,0.620512 C10.478048,0.15872 12.99888,0 16,0 C19.00112,0 21.52192,0.15872 23.59984,0.620512 C25.696,1.086352 27.43808,1.8816 28.77824,3.221728 C30.1184,4.561856 30.9136,6.304032 31.37952,8.400112 C31.84128,10.478048 32,12.99888 32,16 C32,19.00112 31.84128,21.52192 31.37952,23.59984 C30.9136,25.696 30.1184,27.43808 28.77824,28.77824 C27.43808,30.1184 25.696,30.9136 23.59984,31.37952 C21.52192,31.84128 19.00112,32 16,32 C12.99888,32 10.478048,31.84128 8.400112,31.37952 C6.304032,30.9136 4.561856,30.1184 3.221728,28.77824 C1.8816,27.43808 1.086352,25.696 0.620512,23.59984 C0.15872,21.52192 0,19.00112 0,16 C0,12.99888 0.15872,10.478048 0.620512,8.400112 C1.086352,6.304032 1.8816,4.561856 3.221728,3.221728 C4.561856,1.8816 6.304032,1.086352 8.400112,0.620512 Z" id="Path-Copy" fill="#3C83F6"></path>
                        <g id="Group" transform="translate(10.000000, 8.000000)">
                            <path d="M8.3320776,0 C3.73039821,0 0,3.43154935 0,7.66458 C0,11.8976106 3.73039821,15.32916 8.3320776,15.32916" id="Path" stroke="#FFFFFF" stroke-width="2.212056" stroke-linecap="round"></path>
                            <path d="M6.65043862,4.86022523 C5.96562949,4.42504007 5.410482,4.72959798 5.410482,5.54201247 L5.410482,9.86541033 C5.410482,10.6771362 5.96881486,10.9803585 6.65043862,10.5471976 L9.88500338,8.49168383 C10.5698125,8.05649867 10.5666271,7.34889988 9.88500338,6.91573897 L6.65043862,4.86022523 Z" id="Mask" fill="#FFFFFF"></path>
                        </g>
                    </g>
                </g>
            </g>
        </g>
    </g>
</svg>