<?xml version="1.0" encoding="UTF-8"?>
<svg width="30px" height="31px" viewBox="0 0 30 31" version="1.1" xmlns="http://www.w3.org/2000/svg" xmlns:xlink="http://www.w3.org/1999/xlink">
    <title>discount-shape-svgrepo-com</title>
    <g id="Checkout-1.1" stroke="none" stroke-width="1" fill="none" fill-rule="evenodd">
        <g id="01.-Full-Checkout-1.1" transform="translate(-241.000000, -1356.000000)" fill="#24652B" fill-rule="nonzero">
            <g id="Group-10" transform="translate(170.000000, 957.000000)">
                <g id="Group-16" transform="translate(43.000000, 378.000000)">
                    <g id="discount-shape-svgrepo-com" transform="translate(28.000000, 21.166667)">
                        <path d="M29.2947804,13.3174679 L27.0142125,11.0340566 C26.6241153,10.6434705 26.3090369,9.87732092 26.3090369,9.33650943 L26.3090369,6.09164051 C26.3090369,4.76965687 25.2287678,3.68803389 23.908439,3.68803389 L20.6826357,3.68803389 C20.1425012,3.68803389 19.3773106,3.37256053 18.9872135,2.98197445 L16.7066455,0.698548172 C15.7764139,-0.232849391 14.2460328,-0.232849391 13.3158011,0.698548172 L11.0052407,2.98197445 C10.6301473,3.37256053 9.86495672,3.68803389 9.30981847,3.68803389 L6.08401513,3.68803389 C4.76368633,3.68803389 3.6834173,4.76965687 3.6834173,6.09164051 L3.6834173,9.32148689 C3.6834173,9.86229838 3.36833883,10.628448 2.97824169,11.0190341 L0.697673745,13.3024453 C-0.232557915,14.2338429 -0.232557915,15.7661421 0.697673745,16.6975397 L2.97824169,18.9809659 C3.36833883,19.371552 3.6834173,20.1377016 3.6834173,20.6785131 L3.6834173,23.9083595 C3.6834173,25.2303431 4.76368633,26.3119661 6.08401513,26.3119661 L9.30981847,26.3119661 C9.84995298,26.3119661 10.6151435,26.6274395 11.0052407,27.0180255 L13.2857936,29.3014518 C14.2160253,30.2328494 15.7464064,30.2328494 16.6766381,29.3014518 L18.957206,27.0180255 C19.3473032,26.6274395 20.1124937,26.3119661 20.6526282,26.3119661 L23.8784316,26.3119661 C25.1987604,26.3119661 26.2790294,25.2303431 26.2790294,23.9083595 L26.2790294,20.6785131 C26.2790294,20.1377016 26.5941079,19.371552 26.984205,18.9809659 L29.264773,16.6975397 C30.2400158,15.7811646 30.2400158,14.2488654 29.2947804,13.3174679 Z M8.99474001,10.5082677 C8.99474001,9.68202788 9.66990815,9.00601352 10.4951137,9.00601352 C11.3203192,9.00601352 11.9954873,9.68202788 11.9954873,10.5082677 C11.9954873,11.3345074 11.3353229,12.0105218 10.4951137,12.0105218 C9.66990815,12.0105218 8.99474001,11.3345074 8.99474001,10.5082677 Z M11.2903117,20.3179721 C11.0652556,20.5433102 10.7801846,20.648468 10.4951137,20.648468 C10.2100427,20.648468 9.92497167,20.5433102 9.69991562,20.3179721 C9.26480726,19.8823184 9.26480726,19.1612364 9.69991562,18.7255827 L18.7021425,9.71207297 C19.1372508,9.27641927 19.8574302,9.27641927 20.2925386,9.71207297 C20.7276469,10.1477267 20.7276469,10.8688086 20.2925386,11.3044623 L11.2903117,20.3179721 Z M19.4973405,21.0240316 C18.6571313,21.0240316 17.9819631,20.3480172 17.9819631,19.5217774 C17.9819631,18.6955377 18.6571313,18.0195233 19.4823368,18.0195233 C20.3075423,18.0195233 20.9827104,18.6955377 20.9827104,19.5217774 C20.9827104,20.3480172 20.322546,21.0240316 19.4973405,21.0240316 Z" id="Shape"></path>
                    </g>
                </g>
            </g>
        </g>
    </g>
</svg>