<?xml version="1.0" encoding="UTF-8"?>
<svg width="38px" height="38px" viewBox="0 0 38 38" version="1.1" xmlns="http://www.w3.org/2000/svg" xmlns:xlink="http://www.w3.org/1999/xlink">
    <title>Group 43</title>
    <g id="Checkout-1.1" stroke="none" stroke-width="1" fill="none" fill-rule="evenodd">
        <g id="01.-Full-Checkout-1.1" transform="translate(-192.000000, -752.000000)">
            <g id="Group-25-Copy" transform="translate(170.000000, 731.000000)">
                <g id="Group-43" transform="translate(22.000000, 21.000000)">
                    <path d="M9.975133,0.736858 C12.442682,0.18848 15.43617,0 19,0 C22.56383,0 25.55728,0.18848 28.02481,0.736858 C30.514,1.290043 32.58272,2.2344 34.17416,3.825802 C35.7656,5.417204 36.7099,7.486038 37.26318,9.975133 C37.81152,12.442682 38,15.43617 38,19 C38,22.56383 37.81152,25.55728 37.26318,28.02481 C36.7099,30.514 35.7656,32.58272 34.17416,34.17416 C32.58272,35.7656 30.514,36.7099 28.02481,37.26318 C25.55728,37.81152 22.56383,38 19,38 C15.43617,38 12.442682,37.81152 9.975133,37.26318 C7.486038,36.7099 5.417204,35.7656 3.825802,34.17416 C2.2344,32.58272 1.290043,30.514 0.736858,28.02481 C0.18848,25.55728 0,22.56383 0,19 C0,15.43617 0.18848,12.442682 0.736858,9.975133 C1.290043,7.486038 2.2344,5.417204 3.825802,3.825802 C5.417204,2.2344 7.486038,1.290043 9.975133,0.736858 Z" id="Path-Copy" fill="#3FCAAA"></path>
                    <g id="protection-shield-svgrepo-com" transform="translate(11.000000, 9.000000)" fill="#FFFFFF" fill-rule="nonzero">
                        <path d="M7.99963461,2.38768308 C7.86592429,2.38768308 7.73156033,2.41845311 7.61169902,2.47728054 L2.90687706,4.76612504 C2.57384727,4.92722231 2.37755088,5.28342584 2.42101797,5.64894134 L2.92583263,9.99715074 L7.99959375,9.99715074 L7.99959375,17.5915573 C8.24707835,17.5915573 8.4952983,17.4977897 8.66324303,17.3083921 L12.5831654,12.8701804 C12.7023322,12.735683 12.7752948,12.5719135 12.7952309,12.3964434 L13.0749481,9.99658392 L7.99963461,9.99658392 L7.99963461,2.38768308 Z" id="Path"></path>
                        <path d="M14.1566822,2.61683879 L9.45194189,0.3276704 C8.55453446,-0.109223467 7.44510242,-0.109223467 6.54789926,0.3276704 L1.84230109,2.61683879 C0.59335768,3.22495166 -0.138106791,4.55198996 0.0217899937,5.922997 L0.803993302,12.6691225 C0.881082017,13.3300303 1.15561099,13.9454713 1.59943283,14.4471441 L5.51935522,18.88487 C6.14676831,19.5942001 7.04948656,20 7.99963461,20 C8.94953753,20 9.85282772,19.5942001 10.4803225,18.88487 L14.40049,14.4471441 C14.8441893,13.9454713 15.1187591,13.3300303 15.1949491,12.6691225 L15.9785414,5.922997 C16.13709,4.55198996 15.4058298,3.22495166 14.1566822,2.61683879 Z M14.3785522,5.73955097 L13.5951233,12.4864053 C13.5563134,12.825078 13.4166795,13.139661 13.1890492,13.3953761 L9.26822808,17.8335878 C8.62888606,18.5591936 7.37075083,18.5591936 6.73144965,17.8335878 L2.81152726,13.3953761 C2.58291653,13.139661 2.4433643,12.825078 2.40394161,12.4864053 L1.62112552,5.73955097 C1.53942047,5.03957339 1.91403813,4.36093239 2.55190946,4.04890005 L7.25611864,1.76005555 C7.48734393,1.64863567 7.74410206,1.58980824 7.99959375,1.58980824 C8.25508545,1.58980824 8.51249721,1.64863567 8.74274205,1.76005555 L13.4469921,4.04890005 C14.0862524,4.36093239 14.4602981,5.03957339 14.3785522,5.73955097 Z" id="Shape"></path>
                    </g>
                </g>
            </g>
        </g>
    </g>
</svg>