<?xml version="1.0" encoding="UTF-8"?>
<svg width="32px" height="32px" viewBox="0 0 32 32" version="1.1" xmlns="http://www.w3.org/2000/svg" xmlns:xlink="http://www.w3.org/1999/xlink">
    <title>Group 28</title>
    <g id="Checkout" stroke="none" stroke-width="1" fill="none" fill-rule="evenodd">
        <g id="01.-Full-Checkout" transform="translate(-249.000000, -1350.000000)">
            <g id="Group-8" transform="translate(185.000000, 862.000000)">
                <g id="Group-27-Copy" transform="translate(42.000000, 474.000000)">
                    <g id="Group-32" transform="translate(22.000000, 14.000000)">
                        <g id="Group-28">
                            <path d="M0,16 C0,24.832 7.168,32 16,32 C24.832,32 32,24.832 32,16 C32,7.168 24.832,0 16,0 C7.168,0 0,7.168 0,16 Z" id="Path" fill="#E4717D"></path>
                            <path d="M13.6144281,6.88087248 C14.6051737,5.70637584 16.395628,5.70637584 17.3855465,6.88087248 L17.8073164,7.37583893 C18.0091043,7.61912752 18.3266721,7.71979866 18.628527,7.65268456 L19.2603548,7.49328859 C20.7415111,7.13255034 22.1904145,8.20637584 22.3103295,9.74161074 L22.3624304,10.4043624 C22.3864134,10.7147651 22.5824124,10.9916107 22.8693812,11.1090604 L23.469783,11.3607383 C24.8765094,11.9563758 25.4297722,13.6845638 24.6341985,15.0016779 L24.2959556,15.5637584 C24.1330367,15.8322148 24.1330367,16.1677852 24.2959556,16.4362416 L24.6341985,16.9983221 C25.4297722,18.3154362 24.8765094,20.0436242 23.469783,20.6392617 L22.8693812,20.8909396 C22.5824124,21.0083893 22.3864134,21.2852349 22.3624304,21.5956376 L22.3103295,22.2583893 C22.1904145,23.7936242 20.7415111,24.8674497 19.2603548,24.5067114 L18.628527,24.3473154 C18.3266721,24.2802013 18.0091043,24.3808725 17.8073164,24.6241611 L17.3855465,25.1191275 C16.395628,26.2936242 14.6051737,26.2936242 13.6144281,25.1191275 L13.1926583,24.6241611 C12.9908704,24.3808725 12.6741295,24.2802013 12.3714477,24.3473154 L11.7396199,24.5067114 C10.2584635,24.8674497 8.81038715,23.7936242 8.6896452,22.2583893 L8.63754422,21.5956376 C8.61356123,21.2852349 8.41756231,21.0083893 8.13059344,20.8909396 L7.53101869,20.6392617 C6.12346528,20.0436242 5.57020251,18.3154362 6.36577618,16.9983221 L6.70401904,16.4362416 C6.86693797,16.1677852 6.86693797,15.8322148 6.70401904,15.5637584 L6.36577618,15.0016779 C5.57020251,13.6845638 6.12346528,11.9563758 7.53101869,11.3607383 L8.13059344,11.1090604 C8.41756231,10.9916107 8.61356123,10.7147651 8.63754422,10.4043624 L8.6896452,9.74161074 C8.81038715,8.20637584 10.2584635,7.13255034 11.7396199,7.49328859 L12.3714477,7.65268456 C12.6741295,7.71979866 12.9908704,7.61912752 13.1926583,7.37583893 L13.6144281,6.88087248 Z M16.1285071,7.97147651 C15.7985342,7.57718121 15.2014405,7.57718121 14.8714676,7.97147651 L14.4488708,8.46644295 C13.844334,9.18791946 12.8924574,9.49832215 11.9860658,9.28020134 L11.3550651,9.12919463 C10.8613463,9.01174497 10.3783785,9.36409396 10.3378555,9.87583893 L10.2865815,10.5302013 C10.2129786,11.4781879 9.62498181,12.3003356 8.76407517,12.6610738 L8.16450042,12.9127517 C7.69559162,13.1057047 7.5111707,13.6845638 7.77663758,14.1208054 L8.11488044,14.6828859 C8.60115624,15.4966443 8.60115624,16.5033557 8.11488044,17.3171141 L7.77663758,17.8791946 C7.5111707,18.3154362 7.69559162,18.8942953 8.16450042,19.0872483 L8.76407517,19.3389262 C9.62498181,19.6996644 10.2129786,20.5218121 10.2865815,21.4697987 L10.3378555,22.1241611 C10.3783785,22.635906 10.8613463,22.988255 11.3550651,22.8708054 L11.9860658,22.7197987 C12.8924574,22.5016779 13.844334,22.8120805 14.4488708,23.533557 L14.8714676,24.0285235 C15.2014405,24.4228188 15.7985342,24.4228188 16.1285071,24.0285235 L16.5511039,23.533557 C17.1564676,22.8120805 18.1075172,22.5016779 19.0139089,22.7197987 L19.6449096,22.8708054 C20.1386284,22.988255 20.6215962,22.635906 20.6621192,22.1241611 L20.7133931,21.4697987 C20.7869961,20.5218121 21.3749929,19.6996644 22.2358995,19.3389262 L22.8354743,19.0872483 C23.3043831,18.8942953 23.488804,18.3154362 23.2233371,17.8791946 L22.8850942,17.3171141 C22.3988184,16.5033557 22.3988184,15.4966443 22.8850942,14.6828859 L23.2233371,14.1208054 C23.488804,13.6845638 23.3043831,13.1057047 22.8354743,12.9127517 L22.2358995,12.6610738 C21.3749929,12.3003356 20.7869961,11.4781879 20.7133931,10.5302013 L20.6621192,9.87583893 C20.6215962,9.36409396 20.1386284,9.01174497 19.6449096,9.12919463 L19.0139089,9.28020134 C18.1075172,9.49832215 17.1564676,9.18791946 16.5511039,8.46644295 L16.1285071,7.97147651 Z M14.4306768,12.8875839 C14.7540336,13.2147651 14.7540336,13.7516779 14.4306768,14.0788591 L13.6036771,14.9177852 C13.2803203,15.2449664 12.7576565,15.2449664 12.4342996,14.9177852 C12.1109428,14.590604 12.1109428,14.0536913 12.4342996,13.7265101 L13.2612993,12.8875839 C13.5846561,12.5604027 14.1073199,12.5604027 14.4306768,12.8875839 Z M18.565675,12.8875839 C18.8890319,13.2147651 18.8890319,13.7516779 18.565675,14.0788591 L13.6036771,19.1124161 C13.2803203,19.4395973 12.7576565,19.4395973 12.4342996,19.1124161 C12.1109428,18.7852349 12.1109428,18.2483221 12.4342996,17.9211409 L17.3962975,12.8875839 C17.7196544,12.5604027 18.2423182,12.5604027 18.565675,12.8875839 Z M18.565675,17.0822148 C18.8890319,17.409396 18.8890319,17.9463087 18.565675,18.2734899 L17.7386754,19.1124161 C17.4153185,19.4395973 16.8926548,19.4395973 16.5692979,19.1124161 C16.245941,18.7852349 16.245941,18.2483221 16.5692979,17.9211409 L17.3962975,17.0822148 C17.7196544,16.7550336 18.2423182,16.7550336 18.565675,17.0822148 L18.565675,17.0822148 Z" id="Fill-916" fill="#FFFFFF"></path>
                        </g>
                    </g>
                </g>
            </g>
        </g>
    </g>
</svg>