<?xml version="1.0" encoding="UTF-8"?>
<svg width="32px" height="32px" viewBox="0 0 32 32" version="1.1" xmlns="http://www.w3.org/2000/svg" xmlns:xlink="http://www.w3.org/1999/xlink">
    <title>Group 3</title>
    <defs>
        <filter id="filter-1">
            <feColorMatrix in="SourceGraphic" type="matrix" values="0 0 0 0 1.000000 0 0 0 0 1.000000 0 0 0 0 1.000000 0 0 0 1.000000 0"></feColorMatrix>
        </filter>
    </defs>
    <g id="Checkout" stroke="none" stroke-width="1" fill="none" fill-rule="evenodd">
        <g id="01.-Full-Checkout" transform="translate(-251.000000, -1276.000000)">
            <g id="Group-8" transform="translate(185.000000, 862.000000)">
                <g id="Group-21-Copy" transform="translate(42.000000, 400.000000)">
                    <g id="Group-30" transform="translate(24.000000, 14.000000)">
                        <g id="Group-3">
                            <g id="ic_album" fill="#00C972">
                                <path d="M16,0 C7.168,0 0,7.168 0,16 C0,24.832 7.168,32 16,32 C24.832,32 32,24.832 32,16 C32,7.168 24.832,0 16,0 L16,0 Z" id="Path"></path>
                            </g>
                            <g filter="url(#filter-1)" id="network">
                                <g transform="translate(7.000000, 6.000000)">
                                    <path d="M8.9661,6.90984 L8.9661,3.5742 C9.74652,3.37368 10.32498,2.66412 10.32498,1.82196 C10.32498,0.82452 9.51354,0.01308 8.5161,0.01308 C7.51872,0.01308 6.70728,0.82452 6.70728,1.82196 C6.70728,2.66412 7.28574,3.37362 8.0661,3.57414 L8.0661,6.90978 C7.1196,7.05222 6.31596,7.63668 5.87274,8.4456 L3.89334,6.90684 C3.94176,6.77058 3.96834,6.624 3.96834,6.47136 C3.96834,5.75196 3.38304,5.16666 2.66364,5.16666 C1.94424,5.16666 1.35894,5.75196 1.35894,6.47136 C1.35894,7.19076 1.94424,7.77606 2.66364,7.77606 C2.90196,7.77606 3.12534,7.7115 3.31782,7.59948 L5.55522,9.33882 C5.52222,9.51708 5.5041,9.70044 5.5041,9.88812 C5.5041,10.55652 5.72322,11.17452 6.093,11.67474 L3.56322,14.20452 C3.38748,14.38026 3.38748,14.6652 3.56322,14.84088 C3.65112,14.92872 3.76632,14.9727 3.88146,14.9727 C3.9966,14.9727 4.1118,14.92878 4.1997,14.84088 L6.72948,12.3111 C7.11522,12.59628 7.57104,12.79182 8.0661,12.86634 L8.0661,16.20942 C7.56774,16.39314 7.2114,16.87278 7.2114,17.43408 C7.2114,18.15348 7.7967,18.73878 8.5161,18.73878 C9.2355,18.73878 9.8208,18.15348 9.8208,17.43408 C9.8208,16.87272 9.46446,16.39308 8.9661,16.20942 L8.9661,12.8664 C10.41426,12.64854 11.5281,11.39604 11.5281,9.88818 C11.5281,8.3802 10.4142,7.1277 8.9661,6.90984 Z M2.66364,6.87612 C2.44044,6.87612 2.25894,6.69456 2.25894,6.47142 C2.25894,6.24828 2.44044,6.06672 2.66364,6.06672 C2.88684,6.06672 3.06834,6.24828 3.06834,6.47142 C3.06834,6.69456 2.88678,6.87612 2.66364,6.87612 Z M7.60722,1.82196 C7.60722,1.32078 8.01492,0.91308 8.51604,0.91308 C9.01716,0.91308 9.42492,1.32078 9.42492,1.82196 C9.42492,2.32314 9.01716,2.73084 8.51604,2.73084 C8.01492,2.73084 7.60722,2.32314 7.60722,1.82196 Z M8.5161,17.83878 C8.2929,17.83878 8.1114,17.65722 8.1114,17.43408 C8.1114,17.23878 8.25042,17.07534 8.43474,17.0376 C8.46114,17.04246 8.48826,17.04534 8.5161,17.04534 C8.54394,17.04534 8.57106,17.04246 8.59746,17.0376 C8.78178,17.07534 8.9208,17.23878 8.9208,17.43408 C8.9208,17.65722 8.73924,17.83878 8.5161,17.83878 Z M8.5161,12.00006 C7.35156,12.00006 6.40416,11.0526 6.40416,9.88806 C6.40416,9.68256 6.43422,9.48402 6.48918,9.29604 C6.49212,9.28674 6.49488,9.2775 6.49716,9.26808 C6.76266,8.40516 7.5672,7.77606 8.5161,7.77606 C9.68064,7.77606 10.6281,8.72352 10.6281,9.88806 C10.6281,11.05266 9.68064,12.00006 8.5161,12.00006 Z" id="Shape" fill="#000000" fill-rule="nonzero"></path>
                                    <path d="M17.42304,5.51718 C16.4256,5.51718 15.61416,6.32862 15.61416,7.32606 C15.61416,7.37256 15.6165,7.41846 15.61998,7.46406 L12.3657,8.57364 C12.13044,8.6538 12.00474,8.90958 12.08496,9.14478 C12.14874,9.33192 12.32358,9.4497 12.51084,9.4497 C12.55902,9.4497 12.60798,9.4419 12.6561,9.42552 L15.91026,8.316 C16.23378,8.80872 16.79088,9.135 17.4231,9.135 C18.42048,9.135 19.23192,8.32356 19.23192,7.32612 C19.23192,6.32868 18.42042,5.51718 17.42304,5.51718 Z M17.42304,8.235 C16.92186,8.235 16.51416,7.8273 16.51416,7.32612 C16.51416,6.82494 16.92192,6.41724 17.42304,6.41724 C17.92416,6.41724 18.33186,6.82494 18.33186,7.32612 C18.33186,7.82724 17.92416,8.235 17.42304,8.235 Z" id="Shape" fill="#000000" fill-rule="nonzero"></path>
                                    <path d="M1.80888,14.7864 C0.81144,14.7864 0,15.5979 0,16.59528 C0,17.59272 0.81144,18.40416 1.80888,18.40416 C2.80626,18.40416 3.6177,17.59272 3.6177,16.59528 C3.61776,15.5979 2.80626,14.7864 1.80888,14.7864 Z M1.80888,17.50422 C1.3077,17.50422 0.9,17.09652 0.9,16.59534 C0.9,16.09416 1.30776,15.68646 1.80888,15.68646 C2.31,15.68646 2.7177,16.09416 2.7177,16.59534 C2.71776,17.09646 2.31006,17.50422 1.80888,17.50422 Z" id="Shape" fill="#000000" fill-rule="nonzero"></path>
                                </g>
                            </g>
                        </g>
                    </g>
                </g>
            </g>
        </g>
    </g>
</svg>