<?xml version="1.0" encoding="UTF-8"?>
<svg width="56px" height="26px" viewBox="0 0 56 26" version="1.1" xmlns="http://www.w3.org/2000/svg" xmlns:xlink="http://www.w3.org/1999/xlink">
    <title>Group 17</title>
    <g id="Free-Test-Funnel" stroke="none" stroke-width="1" fill="none" fill-rule="evenodd">
        <g id="03.-Trial-Info" transform="translate(-701.000000, -966.000000)" fill="#C0C0C0" fill-rule="nonzero">
            <g id="Group-17" transform="translate(701.000000, 966.000000)">
                <path d="M3.14999999,10.248303 L3.14999999,16.4541821 C3.14999999,17.279489 2.48828125,17.9386626 1.64609375,17.9386626 C0.809374994,17.9386626 0,17.2741299 0,16.4541821 L0,10.248303 C0,9.43907348 0.809374994,8.77454062 1.64609375,8.77454062 C2.471875,8.77454062 3.14999999,9.43907348 3.14999999,10.248303 Z M3.740625,18.662146 C3.740625,19.5410443 4.46249999,20.2484501 5.35937499,20.2484501 L6.44765626,20.2484501 L6.4640625,23.5228821 C6.4640625,25.5004031 9.48281248,25.4843257 9.48281248,23.5228821 L9.48281248,20.2484501 L11.5171875,20.2484501 L11.5171875,23.5228821 C11.5171875,25.4896848 14.5523437,25.495044 14.5523437,23.5228821 L14.5523437,20.2484501 L15.6570312,20.2484501 C16.5429688,20.2484501 17.2648437,19.5410443 17.2648437,18.662146 L17.2648437,9.0478566 L3.740625,9.0478566 L3.740625,18.662146 Z M17.303125,8.5280204 L3.68046874,8.5280204 C3.68046874,6.23431034 5.08046875,4.24071186 7.15859377,3.20103953 L6.1140625,1.30926463 C5.96093746,1.04666698 6.34921874,0.880533777 6.48046874,1.10561748 L7.54140625,3.01346978 C9.45,2.18280375 11.6429687,2.22567683 13.4640625,3.01346978 L14.5195312,1.11097662 C14.65625,0.880533777 15.0390625,1.05202612 14.8859375,1.31462377 L13.8414062,3.20103953 C15.903125,4.24071186 17.303125,6.23431034 17.303125,8.5280204 L17.303125,8.5280204 Z M7.96796873,5.5537001 C7.96796873,5.24822937 7.71640625,4.99099086 7.39375001,4.99099086 C7.08203122,4.99099086 6.83593746,5.24822937 6.83593746,5.5537001 C6.83593746,5.85917084 7.08750002,6.11640935 7.39375001,6.11640935 C7.71640625,6.11640935 7.96796873,5.85917084 7.96796873,5.5537001 Z M14.1695312,5.5537001 C14.1695312,5.24822937 13.9179688,4.99099086 13.6117188,4.99099086 C13.2890625,4.99099086 13.0375,5.24822937 13.0375,5.5537001 C13.0375,5.85917084 13.2890625,6.11640935 13.6117188,6.11640935 C13.9179688,6.11640935 14.1695312,5.85917084 14.1695312,5.5537001 Z M19.3539063,8.77454062 C18.528125,8.77454062 17.85,9.42299608 17.85,10.248303 L17.85,16.4541821 C17.85,17.279489 18.528125,17.9386626 19.3539063,17.9386626 C20.1960938,17.9386626 21,17.2741299 21,16.4541821 L21,10.248303 C21,9.42299608 20.190625,8.77454062 19.3539063,8.77454062 Z" id="android"></path>
                <path d="M44.9892651,7.58526613 C42.0713531,7.68973228 34.8334927,8.48482522 34.8334927,14.4044652 C34.8334927,20.7593764 43.1198836,21.0205372 45.8280898,16.9116077 C46.217544,17.5035735 47.9491178,19.0879451 48.5422869,19.6276824 L51.9455191,16.3776846 C51.9455191,16.3776846 50.0102305,14.9093805 50.0102305,13.3133985 L50.0102305,4.77633564 C50.0102305,3.30804052 48.5422869,0 43.2816576,0 C38.0090438,0 35.2109643,3.191964 35.2109643,6.05312305 L39.6147944,6.44776692 C40.5914259,3.57499751 42.8622453,3.57499751 42.8622453,3.57499751 C45.3008287,3.56919233 44.9892651,5.30446253 44.9892651,7.58526613 Z M44.9892651,12.6227717 C44.9892651,17.2656243 39.9443333,16.5692014 39.9443333,13.6209827 C39.9443333,10.8816963 42.970094,10.3303577 44.9892651,10.2665188 L44.9892651,12.6227717 L44.9892651,12.6227717 Z M53.1378491,22.1116131 C52.676495,22.6919685 48.9437247,26 42.6824967,26 C36.4212687,26 31.6279844,21.8504522 30.1600407,20.1383937 C29.7526111,19.6915213 30.2199569,19.482589 30.4895788,19.6566992 C34.8814262,22.2392909 41.7418142,26.4933048 52.8083101,21.4151811 C53.2576805,21.2004527 53.605194,21.5312486 53.1378491,22.1116131 Z M55.5225081,22.2392909 C55.1330538,23.1562565 54.563851,23.7946457 54.2522875,24.038391 C53.9227494,24.2995518 53.6830847,24.1950947 53.8628332,23.8178574 C54.0425817,23.440629 55.0192133,21.1191982 54.6237672,20.6258934 C54.234313,20.1441989 52.4068731,20.3763429 51.7477961,20.4401818 C51.1007026,20.4982155 50.9688876,20.5562493 50.9089714,20.4227662 C50.7711645,20.0919703 52.2091501,19.5232162 53.1558236,19.4071487 C54.0965061,19.3026826 55.6123824,19.3607163 55.9119624,19.7379446 C56.1336517,20.0339276 55.9119624,21.310715 55.5225081,22.2392909 Z" id="Mask"></path>
            </g>
        </g>
    </g>
</svg>