<?xml version="1.0" encoding="UTF-8"?>
<svg width="19px" height="23px" viewBox="0 0 19 23" version="1.1" xmlns="http://www.w3.org/2000/svg" xmlns:xlink="http://www.w3.org/1999/xlink">
    <title>Mask</title>
    <g id="Free-Test-Funnel" stroke="none" stroke-width="1" fill="none" fill-rule="evenodd">
        <g id="03.-Trial-Info" transform="translate(-490.000000, -1225.000000)" fill="#C0C0C0" fill-rule="nonzero">
            <path d="M500.67234,1230.4175 C500.359042,1230.51507 499.899202,1230.59723 499.2625,1230.65372 C499.318085,1227.74213 500.773404,1225.69324 503.709308,1225 C504.179255,1227.13619 502.390425,1229.83211 500.67234,1230.4175 L500.67234,1230.4175 Z M506.801862,1234.1507 C507.125266,1233.66801 507.640691,1233.12882 508.348138,1232.52288 C507.221277,1231.1056 505.917553,1230.24805 504.047872,1230.24805 C502.259042,1230.24805 500.753192,1231.18263 499.651596,1231.18263 C498.716755,1231.18263 497.028989,1230.35588 495.381649,1230.35588 C491.864628,1230.35588 490,1233.85287 490,1237.49364 C490,1241.54008 493.016755,1248 496.073936,1248 C497.276596,1248 498.357979,1247.07569 499.788032,1247.07569 C501.268617,1247.07569 502.456117,1247.95892 503.845745,1247.95892 C506.170213,1247.95892 508.322872,1243.97924 509,1241.81223 C506.635106,1241.07792 504.735106,1237.1804 506.801862,1234.1507 Z" id="Mask"></path>
        </g>
    </g>
</svg>