<?xml version="1.0" encoding="UTF-8"?>
<svg width="93px" height="30px" viewBox="0 0 93 30" version="1.1" xmlns="http://www.w3.org/2000/svg" xmlns:xlink="http://www.w3.org/1999/xlink">
    <title>Google Pay</title>
    <g id="Checkout-1.1" stroke="none" stroke-width="1" fill="none" fill-rule="evenodd">
        <g id="01.-Full-Checkout-Copy-2" transform="translate(-260.000000, -1093.000000)" fill-rule="nonzero">
            <g id="Group-33" transform="translate(10.000000, 884.000000)">
                <g id="Group-25" transform="translate(250.000000, 209.000000)">
                    <!-- Google Pay -->
                    <g id="Payment-Method/GooglePay">
                        <rect id="BASE" stroke="#D3DCE6" fill="#FFFFFF" x="0.5" y="0.5" width="42.3333321" height="28.7142849" rx="4"></rect>
                        <g id="GooglePay" transform="translate(4.0, 8.5)">
                            <!-- Google "G" logo -->
                            <path d="M11.5,6.5 C11.5,6.1 11.5,5.7 11.4,5.3 L6.0,5.3 L6.0,7.5 L9.1,7.5 C9.0,8.3 8.6,9.0 8.0,9.4 L8.0,10.7 L9.8,10.7 C10.9,9.7 11.5,8.2 11.5,6.5 Z" fill="#4285F4"></path>
                            <path d="M6.0,12.0 C7.4,12.0 8.6,11.5 9.8,10.7 L8.0,9.4 C7.5,9.7 6.8,9.9 6.0,9.9 C4.7,9.9 3.6,9.0 3.2,7.8 L1.3,7.8 L1.3,9.1 C2.5,11.5 4.1,12.0 6.0,12.0 Z" fill="#34A853"></path>
                            <path d="M3.2,7.8 C3.1,7.5 3.1,7.2 3.1,6.9 C3.1,6.6 3.1,6.3 3.2,6.0 L3.2,4.7 L1.3,4.7 C1.0,5.3 0.8,6.1 0.8,6.9 C0.8,7.7 1.0,8.5 1.3,9.1 L3.2,7.8 Z" fill="#FBBC05"></path>
                            <path d="M6.0,3.9 C6.9,3.9 7.7,4.2 8.3,4.8 L9.9,3.2 C8.6,2.0 7.4,1.8 6.0,1.8 C4.1,1.8 2.5,2.3 1.3,4.7 L3.2,6.0 C3.6,4.8 4.7,3.9 6.0,3.9 Z" fill="#EA4335"></path>
                            <!-- "Pay" text -->
                            <text x="13" y="8.5" font-family="Arial, sans-serif" font-size="7" fill="#5F6368" font-weight="normal">Pay</text>
                        </g>
                    </g>
                </g>
            </g>
        </g>
    </g>
</svg> 