<?xml version="1.0" encoding="UTF-8"?>
<svg width="93px" height="30px" viewBox="0 0 93 30" version="1.1" xmlns="http://www.w3.org/2000/svg" xmlns:xlink="http://www.w3.org/1999/xlink">
    <title>Teveio Stripe</title>
    <g id="Checkout-1.1" stroke="none" stroke-width="1" fill="none" fill-rule="evenodd">
        <g id="01.-Full-Checkout-Copy-2" transform="translate(-260.000000, -1093.000000)" fill-rule="nonzero">
            <g id="Group-33" transform="translate(10.000000, 884.000000)">
                <g id="Group-25" transform="translate(250.000000, 209.000000)">
                    <!-- Teveio Stripe -->
                    <g id="Payment-Method/TeveioStripe" transform="translate(49.000000, 0.000000)">
                        <rect id="BASE" stroke="#D3DCE6" fill="#FFFFFF" x="0.5" y="0.5" width="42.3333321" height="28.7142849" rx="4"></rect>
                        <g id="TeveioStripe" transform="translate(4.0, 8.0)">
                            <!-- Stripe-like logo -->
                            <path d="M8.5,2.5 C9.2,2.5 9.8,2.9 10.2,3.4 C10.5,3.8 10.7,4.4 10.6,5.0 C10.0,5.0 9.3,4.6 8.9,4.1 C8.6,3.7 8.3,3.1 8.4,2.5 C8.5,2.5 8.5,2.5 8.5,2.5 Z" fill="#6772E5"></path>
                            <path d="M12.5,4.0 C12.4,4.0 11.2,4.7 11.2,6.2 C11.3,8.0 12.9,8.6 13.0,8.6 C13.0,8.7 12.7,9.6 12.1,10.5 C11.6,11.3 11.0,12.0 10.2,12.0 C9.4,12.0 9.2,11.5 8.3,11.5 C7.4,11.5 7.1,12.0 6.4,12.0 C5.6,12.0 5.0,11.4 4.4,10.5 C3.2,8.7 2.3,5.9 3.5,4.1 C4.1,3.2 5.1,2.6 6.2,2.6 C7.0,2.6 7.7,3.1 8.2,3.1 C8.7,3.1 9.5,2.5 10.6,2.6 Z" fill="#6772E5"></path>
                            <!-- "Pay" text -->
                            <text x="15" y="9" font-family="Arial, sans-serif" font-size="8" fill="#6772E5" font-weight="bold">Pay</text>
                        </g>
                    </g>
                </g>
            </g>
        </g>
    </g>
</svg> 